<?xml version="1.0" ?><svg id="Layer_1" style="enable-background:new 0 0 4000 4000;" version="1.1" viewBox="0 0 4000 4000" xml:space="preserve" xmlns="http://www.w3.org/2000/svg" xmlns:xlink="http://www.w3.org/1999/xlink"><style type="text/css">
	.st0{fill:none;}
	.st1{fill:#EFF0F1;}
	.st2{fill:#D0D5D8;}
	.st3{fill:#FFFFFF;}
	.st4{fill:#1A1A1A;}
	.st5{fill:#FFC727;}
	.st6{fill:#C1BEBC;}
</style><g><path class="st0" d="M2144.9,1793.3c52.6,31.4,100.1,68.2,133.1,111c27.3,35.3,38,78.9,38,125.7c0,45.7-10.2,94.5-25.4,142   c-15.2,47.5-35.5,93.8-55.7,134.5c-40.5,81.2-80.9,139.8-81,139.9l0,0c-0.4,0.7-3.8,5.6-11,10.9c-0.5,4-1.4,8-2.9,11.8   c-1.9,4.9-4.7,9.4-8.3,13.1c0.4,1.8,0.6,3.6,0.6,5.4c0,3.6-0.9,6.9-2.2,9.8c-1.3,2.9-3.1,5.4-5,7.6c-0.3,0.3-0.6,0.7-0.9,1   c7,2.3,15.4,5.1,24.5,8.4c5.6-4.6,9.7-7.3,9.8-7.3l0,0c1.7-1.1,3.9-0.6,5,1.1c1.1,1.7,0.6,3.9-1.1,5l0,0l-0.1,0.1   c-0.1,0.1-0.3,0.2-0.6,0.4c-0.5,0.3-1.2,0.8-2.1,1.5c-0.8,0.6-1.8,1.3-2.9,2.2c9.5,3.5,19.6,7.4,29.7,11.7   c7.2-7.1,13.4-10.5,13.6-10.7h0c1.7-1,4-0.4,4.9,1.4c1,1.7,0.4,4-1.4,4.9l0,0l0,0l-0.2,0.1c-0.2,0.1-0.4,0.2-0.7,0.5   c-0.7,0.4-1.6,1.1-2.8,1.9c-1.7,1.2-3.8,2.9-6.1,5c5.1,2.2,10.1,4.5,15,6.9c5.4,2.6,10.6,5.3,15.6,8c5.4-4.6,10-6.7,10.2-6.8l0,0   c1.8-0.8,4,0.1,4.8,1.9c0.8,1.8-0.1,4-1.9,4.8l0,0l0,0l-0.1,0.1c-0.1,0.1-0.3,0.1-0.6,0.3c-0.5,0.3-1.2,0.6-2.1,1.2   c-1,0.6-2.2,1.4-3.5,2.4c6.8,4,12.9,8,18.2,12.2c6.1,4.8,11,9.8,14.2,15c8.1,13.1,10.8,25.7,10.8,36.7c0,10.9-2.7,20.2-5.4,26.6   c-0.8,1.9-1.6,3.5-2.3,5c6.5,0.2,13,0.5,19.6,0.7c-0.2-3.2-0.3-6.4-0.3-9.7c0-44.9,16.6-94.5,41.3-143.8   c24.7-49.3,57.5-98.4,90.3-141.9c60.2-79.9,120.3-141.1,129.8-150.7l-103.4-577.8l-66.3,26.7l4.7,51c0.1,1.2-0.4,2.4-1.4,3.2   c-0.1,0.1-34.2,27.1-67.1,46.1c-11,6.3-21.8,11.7-31.3,15c-5.5,1.8-10.5,3-15.1,3.1c-2,0-3.7-1.6-3.7-3.6c0-2,1.6-3.7,3.6-3.7   c3.2,0,7.4-0.9,12-2.4c4.6-1.5,9.8-3.7,15.2-6.3c10.9-5.3,22.8-12.3,34.1-19.7c21.6-14,40.9-28.8,46.3-33l-4.3-46.9l-8.8,3.6   c-0.9,0.4-2,0.3-2.9-0.1c-0.9-0.4-1.6-1.2-1.9-2.1l-2.1-6.4l-10.8,4.7c0.5,1.6,0.9,3.3,1.2,5.1c0.7,3.9,1.1,7.4,1.1,10.7   c0,4.4-0.6,8.3-1.8,11.7c-1.2,3.4-3,6.4-5.2,8.9c-4.5,4.9-10.5,7.7-17.1,9.2c-4.4,1-9,1.4-13.7,1.4c-11.6,0-23.7-2.4-32.9-4.7   c-9.2-2.3-15.6-4.7-15.6-4.7c-0.4-0.2-0.8-0.4-1.1-0.7l-1.4,0.6c-0.5,0.2-1.1,0.3-1.6,0.3c-7.7-0.4-14.2-0.9-19.6-1.8   c-5.4-0.9-9.7-2.2-13.3-4.4c-2.4-1.5-4.3-3.4-5.7-5.7c-1.4-2.4-2.1-5.1-2.4-8.1c-21.1-3-57-8.4-99.3-16.5   c-68.3-13.1-153.5-33-221.3-60.6l0,0c-8.9-3.8-17.4-7.9-25.6-12.4c-2.6,41.4-5.6,75.4-7.4,95.1c13.3,3.9,27.8,8.4,43.3,13.4   C1975.6,1711.6,2066,1746.3,2144.9,1793.3z"/><path class="st0" d="M1474.7,1932.5c-14-29.3-19-62-19-93.9c0-40.7,8.1-80.1,16.2-109.3c1.9-6.7,3.7-12.8,5.4-18.3   c-14.4-5.8-28-12.8-40.6-21.3c-0.7-0.5-1.2-1.2-1.5-2.1c-2.5-9.6-4.4-19.4-5.6-29.3c3.2,32.4,5.2,64.6,5.2,94.8   c0,25.8-1.5,50.1-5,71.8c-3.5,21.7-9,40.8-17.2,56.1c-5.5,10.2-12.2,18.8-20.3,25.3c-5.9,4.7-12.6,8.3-20.1,10.5v34.5h113.1   C1481.4,1945.3,1477.8,1939,1474.7,1932.5z"/><path class="st0" d="M2953.3,3066.4c0-0.4,0.1-0.7,0.1-1.1c-1.8,0.4-3.7,0.8-5.5,1.1H2953.3z"/><path class="st0" d="M972.5,1488c-4.3,0-8.5-0.5-12.5-1.3c2.3,0.8,4.7,1.6,6.9,2.6c12.6,5.1,24.4,11.7,34.5,18.4   c4.8,3.2,9.3,6.3,13.2,9.3c0.4-8.4,0.9-16.6,1.6-24.6c0.7-9.3,1.6-18.2,2.6-26.8C1008.1,1479.3,991.3,1488,972.5,1488z"/><path class="st0" d="M2566.7,2752c0-48.3,10.7-94.2,29.9-135.2c-5.4,2.1-10.9,4-16.5,5.8l-5.9,1.8c-1.8,0.5-3.7-0.3-4.4-2.1   c-0.9-2.1-2-4.3-3-6.7c-1-2.4-1.9-5-2.3-8c-0.8-6.7-1.2-13.5-1.2-20.5c0-47.9,18.4-101.5,54.1-148.5c16.9-22.3,37.8-43,62.5-61   l-10.8-26.7c-14.3,7.7-27.6,15.8-39.9,24.4c-45.3,31.3-78.1,67.8-101.7,105.8c-47.2,75.9-57.8,157.7-57.8,215.5   c0,43.3,5.9,73.1,6.6,76.5c0,0.2,0.1,0.3,0.1,0.3c0.2,1.1,0,2.2-0.7,3.1c-0.7,0.9-1.7,1.4-2.8,1.4h-797.8h-97.3   c-7,87.3-48.9,164.7-111.9,218.3c42.6-4.2,90.7-6.6,141.7-6.6c173.3,0,313.8,27.5,313.8,61.4c0,5.4-3.6,10.6-10.3,15.6h914.8   C2678.3,3037.9,2566.7,2908,2566.7,2752z"/><path class="st0" d="M1952.7,2628.8c0-4.8,0.9-10.1,2.3-15.9c1.5-5.8,3.5-12,6-18.5c4.9-12.9,11.5-26.8,18-39.5   c8.1-15.7,16.1-29.7,21.1-38.2c-1.6-3.2-2.9-6-3.8-8.5c-1-2.7-1.6-5.1-1.6-7.5c0-2,0.5-4,1.7-5.7c1.1-1.7,2.7-2.8,4.5-3.7   c2.8-1.4,6.1-2.3,10.2-3.2c-0.1-0.7-0.1-1.5-0.1-2.3c0-3.7,0.8-7.7,2.1-11.9c1.3-4.2,3.1-8.8,5.3-13.4c1.9-4,4.1-8.1,6.3-12.2   c-5.5-9.6-9.3-21.3-11.8-34.5c-2.7-14.2-3.8-30.1-3.8-47.4c0-66.4,17.2-151.5,34.3-220.2c13.9-55.5,27.7-100.2,32.5-115.4   c-6.5,0.9-18.2,2.4-34.1,4.2c-0.3,8.9-1,17.6-2.2,25.6c-1.6,10.6-3.9,20.1-7.2,27.2c-2.2,4.8-4.8,8.6-8.4,11.1   c-1.9,1.3-4.1,2-6.4,2.2c-0.1,0-0.2,0-0.3,0.1c-0.4,0.1-0.9,0.2-1.7,0.4c-1.5,0.4-3.7,1-6.5,1.8c0,0,0,0,0,0   c-18.1,5.1-62.6,18.5-113.5,41c-54.1,23.8-115.3,58-159.9,102.8c21.3,22.1,36,47.6,45.4,75.2c9.8,28.7,13.9,59.6,13.9,91.2   c0,73.3-21.9,150.8-46.7,215.4c39.5,0.9,103,2.7,204.8,6.1C1952.9,2633.1,1952.7,2631,1952.7,2628.8z"/><path class="st1" d="M1000.3,2941.2c-82.4,7.8-152.8,56.3-191.2,125.2h388.5C1117,3050.8,1047.2,3005,1000.3,2941.2z"/><path class="st1" d="M1921.4,3050.8c0-33.9-140.5-61.4-313.8-61.4c-51,0-99.1,2.4-141.7,6.6c-41.1,35-91.2,59.7-146.3,70.3h591.5   C1917.8,3061.4,1921.4,3056.2,1921.4,3050.8z"/><path class="st1" d="M3174.1,2477.7L3174.1,2477.7L3174.1,2477.7c-1-1-0.9-2.6,0.1-3.5c1-0.9,2.5-0.8,3.4,0.1   c0.1,0.1,6.5,7,12.9,18.3c4.9,8.6,9.8,19.7,11.8,32.3c13.2-36.9,52.7-163.2-40.7-128c-91.8,34.5,31,133.1,36.8,137.7   c-0.5-14.8-5.9-28.4-11.5-38.5C3180.9,2485.3,3174.7,2478.4,3174.1,2477.7z"/><path class="st1" d="M3816.6,2787.1c20.4-10.4,40.4-21.7,59.8-34c1.1-0.7,2.6-0.4,3.3,0.7c0.7,1.1,0.4,2.6-0.7,3.3   c-18.2,11.5-36.9,22.2-56,32.1c29,1.1,136.5,2.2,135.5-45.1C3957.3,2690.2,3839.4,2739,3816.6,2787.1z"/><path class="st1" d="M3678.3,2813.4c12.8-16.5,20.4-32,21.2-33.8l0.1-0.2l0,0c0.6-1.2,2-1.7,3.2-1.2c1.2,0.6,1.7,2,1.2,3.2   c0,0.1-7.4,15.8-20.6,33.2c-7,9.2-15.6,18.8-25.7,26.9c23-5.9,113.4-32.8,76.6-87.1c-37.7-55.8-73.7,60.1-80.6,84.1   C3663.2,2831.2,3671.5,2822.2,3678.3,2813.4z"/><path class="st1" d="M3596,2918.2c1.5,4.5,2.8,9.1,4,13.8c17,3,33,8.6,47.8,16.2c6.4-36.5-28.4-52-63.8-58.4   c4.6,8.8,8.6,18.1,11.8,27.7C3595.9,2917.7,3596,2918,3596,2918.2z"/><path class="st1" d="M3359.3,2092.3c1.2-0.5,2.6,0.1,3.1,1.4c9,22.5,14.9,44.9,18.4,67.1c2.3,1.8,3.6,2.8,3.6,2.8   s50.2-194.1-60.6-142.5c-67.7,31.5,21.3,110.8,51.4,135.2c-3.5-20.1-9.1-40.4-17.2-60.8C3357.5,2094.2,3358.1,2092.7,3359.3,2092.3   z"/><path class="st1" d="M3436.4,2223.6c0.9-1,2.4-1,3.4-0.1s1,2.4,0.1,3.4c0,0-0.2,0.2-0.5,0.5c-0.3,0.4-0.8,0.9-1.5,1.6   c-1.3,1.4-3.1,3.5-5.5,6.1c-4.7,5.3-11.3,12.9-18.9,22.1c-7.8,9.5-16.7,20.7-25.7,33c25-11.9,119.9-63.2,93.3-141.1   c-27.9-81.8-87.7,106.1-97.7,139C3410.5,2251.2,3436.4,2223.7,3436.4,2223.6L3436.4,2223.6z"/><path class="st1" d="M3317.7,2323.8c-5.5-23.3-11.6-44.9-14-53.3c-0.7-2.4-1.1-3.7-1.1-3.7l0,0c-0.4-1.3,0.4-2.6,1.6-3   c1.3-0.4,2.6,0.4,3,1.6c0,0,14.1,47.6,21.4,86.4c20.1-49,23.6-178.2-52.6-130.6c-46.9,29.3,49,138,49.1,138.2   c-0.1-0.3-0.1-0.6-0.1-0.9C3323,2347.4,3320.4,2335.4,3317.7,2323.8z"/><path class="st1" d="M3312.4,2508.2L3312.4,2508.2c1.2-0.5,2.6,0.1,3.1,1.4c0.5,1.2-0.1,2.6-1.4,3.1c0,0-0.3,0.1-1,0.4   c-0.7,0.3-1.7,0.7-3,1.2c-2.6,1.1-6.4,2.7-11.1,4.7c-9.4,4.1-22.4,10-37,17.3c-5.7,2.9-11.7,5.9-17.8,9.2   c18.3,1.1,158.7,7.2,130.3-73.8c-16.6-47.3-121.8,33.7-131.5,69c5.8-3.1,11.4-6,16.8-8.7   C3289.3,2517.3,3312.3,2508.2,3312.4,2508.2z"/><path class="st2" d="M3192.5,2573.6c-1.5,2.3-3.1,4.6-4.9,7c17.4-12.9,37.6-24.9,56.8-35.2c6.1-3.2,12-6.3,17.8-9.2   c14.6-7.3,27.6-13.2,37-17.3c4.7-2,8.5-3.6,11.1-4.7c1.3-0.5,2.3-0.9,3-1.2c0.7-0.3,1-0.4,1-0.4c1.2-0.5,1.9-1.9,1.4-3.1   c-0.5-1.2-1.9-1.9-3.1-1.4h0c0,0-23.1,9.1-52.4,23.8c-5.4,2.7-11.1,5.6-16.8,8.7c-14,7.4-28.7,15.9-42.5,25   C3197.9,2568.3,3195.2,2571,3192.5,2573.6z"/><path class="st2" d="M3199.1,2560.2c2.9-7.9,4.2-15.8,4.2-23.3c0-4.1-0.4-8.2-1-12.1c-2.1-12.5-7-23.7-11.8-32.3   c-6.4-11.3-12.8-18.2-12.9-18.3c-0.9-1-2.4-1-3.4-0.1c-1,0.9-1,2.4-0.1,3.4h0l0.1,0.1c0.7,0.7,6.8,7.7,12.7,18.4   c5.6,10.2,11,23.7,11.5,38.5c0,0.8,0.1,1.6,0.1,2.4c0,10.6-2.5,21.7-9.3,33c-0.1,0.2-0.3,0.4-0.4,0.6   C3192.2,2567.2,3195.7,2563.7,3199.1,2560.2z"/><path class="st2" d="M3167.4,2597.4c0.3,0.6,0.6,1.1,1,1.7c7.9-6,14.3-12.2,19.2-18.6c1.8-2.3,3.5-4.6,4.9-7   C3184,2582,3175.6,2589.9,3167.4,2597.4z"/><path class="st2" d="M3332.2,2394.3c0,0.3-0.2,0.5-0.3,0.7c1-1.9,2.1-3.8,3.1-5.7c10.5-19.9,19.8-40.5,27.4-61.7c0,0,0,0.1-0.1,0.1   c-0.7,1.1-2.2,1.5-3.3,0.8c-1.1-0.7-1.5-2.2-0.8-3.3c3.3-5.4,6.8-10.7,10.3-15.9c10.1-32.8,15.9-66.8,15.9-101.6   c0-15.5-1.2-31.2-3.6-47c-3.4-22.2-9.4-44.6-18.4-67.1c-0.5-1.2-1.9-1.8-3.1-1.4c-1.2,0.5-1.8,1.9-1.4,3.1   c8.1,20.4,13.7,40.7,17.2,60.8c3,17.3,4.4,34.5,4.4,51.5c0,61.8-18.7,121.1-46.9,175.6c0,1.1,0.1,2.2,0.1,3.3   C3332.8,2389.5,3332.6,2392.1,3332.2,2394.3z"/><path class="st2" d="M3167.4,2597.4c8.2-7.5,16.6-15.4,25.1-23.8c2.7-2.6,5.4-5.3,8.1-8c8.6-8.6,17.2-17.5,25.9-26.9   c38-41.1,76-89.7,105.3-143.4c-0.5,0.7-1.4,1.2-2.4,1c-1.3-0.2-2.2-1.5-2-2.8c0-0.2,0.1-0.4,0.1-0.5   c-35.1,64.4-83.1,121.6-128.4,167.3c-3.5,3.5-7,6.9-10.4,10.3c-7.9,7.8-15.8,15.2-23.4,22.2c-0.1,0.1-0.3,0.2-0.4,0.4   C3165.8,2594.5,3166.6,2596,3167.4,2597.4z"/><path class="st1" d="M3781.8,2469.2c1.1,0.7,1.5,2.2,0.8,3.3c-8,13.3-16.8,25.9-26.4,37.7c24.2-20.2,123.5-107.3,77-139.5   c-62-39.9-78.8,105.6-81.7,137.6c9.8-12,18.8-24.8,26.9-38.3C3779.2,2468.9,3780.6,2468.5,3781.8,2469.2z"/><path class="st1" d="M3716.9,2598.6c7.5,0.8,13.2,1.9,16.3,2.7c0.9,0.3,1.6,0.5,2.2,0.8h0c1.2,0.6,1.7,2.1,1.1,3.3   c-0.6,1.2-2.1,1.7-3.3,1.1c-0.1,0-0.6-0.2-1.3-0.4c-0.7-0.2-1.7-0.4-2.9-0.7c-2.4-0.5-5.7-1-9.5-1.5c-7.8-1-18.1-1.8-29.6-1.8   c-5.8,0-12,0.2-18.2,0.7c21.5,11.3,135.6,67.1,134.5-25.5c-0.6-47.2-106.1,6.5-132.2,20.5c5.5-0.4,10.8-0.5,15.9-0.5   C3700.1,2597.1,3709.4,2597.7,3716.9,2598.6z"/><path class="st1" d="M3575.9,2543.1c0.2-0.7,0.2-1,0.2-1l0,0c0.3-1.3,1.6-2.1,2.9-1.8c1.3,0.3,2.1,1.6,1.8,2.9   c0,0.1-3,13.3-9.4,31.1c-4.9,13.7-11.8,30-20.9,45.1c27.6-24.7,102.5-97.9,60.5-127.6c-90.9-64.7-72.7,113.1-70.3,134   c6.4-9.3,11.9-19.5,16.6-29.5C3568.7,2571.6,3574.7,2548.2,3575.9,2543.1z"/><path class="st1" d="M3518.8,2725.1c1.1,0.7,1.4,2.3,0.6,3.4c-0.7,1.1-2.3,1.4-3.4,0.6l-0.1-0.1l-0.4-0.3c-0.4-0.3-1-0.6-1.8-1.1   c-1.6-1-3.9-2.4-6.9-4.1c-6-3.4-14.7-8-25.6-12.9c-14.5-6.4-32.8-13.1-53.4-17.8c6.1,6,106.6,102.3,147.8,47.4   c39-52-113.4-63.1-143.2-51.3C3483.3,2701.1,3518.7,2725,3518.8,2725.1L3518.8,2725.1z"/><polygon class="st1" points="3398.8,2595.9 3398.8,2595.9 3398.8,2595.9  "/><polygon class="st1" points="3402.1,2599 3402.1,2599 3402.1,2599  "/><path class="st1" d="M3354.7,2655.7c18.8-20.9,34.2-44.2,40.8-54.5c1.9-3,3-4.9,3.4-5.4l0.2-0.3l0.2-0.2c0.1-0.1,0.1-0.2,0.5-0.4   c0.2-0.1,0.5-0.3,1.3-0.4c0.3,0,0.6,0.1,0.8,0.2l0.2,0.1c0.1,0.1,0.2,0.1,0.5,0.3c0.2,0.1,0.4,0.3,0.6,0.8c0.1,0.3,0.2,0.6,0.2,1   c0,0.4-0.1,0.5-0.1,0.6l-0.1,0.2l-0.1,0.2l-0.1,0.1h0c0,0.1-0.1,0.2-0.2,0.2l0,0l0,0.1l-0.3,0.4c-0.3,0.4-0.6,1-1.1,1.8   c-1,1.6-2.4,3.9-4.3,6.7c-3.7,5.7-9,13.5-15.4,22.3c-9.4,12.9-21.4,27.8-34.4,40.6c37.2-21.1,136-82.2,83.1-110.3   c-50.8-27-90.5,97.6-95.9,115.5C3341.6,2669.5,3348.3,2662.8,3354.7,2655.7z"/><path class="st2" d="M3286.7,2846.1c-23.1-5.8-45.9-12.7-68.4-20.8c-1.3-0.5-2.6,0.2-3.1,1.5s0.2,2.6,1.5,3.1h0   c6.8,2.5,13.6,4.8,20.5,7c16.4,2.3,32.3,6.1,47.5,11.3C3285.3,2847.5,3286,2846.8,3286.7,2846.1z"/><path class="st2" d="M3624,2856.2c-0.4-1.3,0.4-2.6,1.7-3c0.1,0,0.2-0.1,0.3-0.1c-19.6,4-39.4,7.2-59.3,9.7c1.1,1.5,2.2,3,3.3,4.5   c19.1-2.4,38-5.6,56.9-9.4C3625.6,2858.2,3624.4,2857.5,3624,2856.2z"/><path class="st2" d="M3879.7,2753.9c-0.7-1.1-2.2-1.5-3.3-0.7c-19.4,12.3-39.3,23.6-59.8,34c-53.3,27-110,47.5-168.2,61.2   c-6.6,4.2-13.6,7.5-21.2,9.6c68-13.9,134.1-36.8,195.8-68.6c19.1-9.9,37.8-20.5,56-32.1C3880.1,2756.5,3880.5,2755,3879.7,2753.9z"/><path class="st2" d="M3294.8,2701.1c-1.3,0.1-2.5-0.9-2.6-2.2c-0.1-1.3,0.9-2.5,2.2-2.6c0,0,0,0,0,0c-37.6,3.3-69.3,4.5-91.4,4.7   c0.3,1.6,0.5,3.2,0.7,4.8C3225.9,2705.5,3257.4,2704.4,3294.8,2701.1z"/><path class="st2" d="M3395.5,2687.9c-0.1,0-0.2,0-0.3,0c-1.3-0.1-2.3-1.3-2.2-2.6c0.1-1.3,1.3-2.3,2.6-2.2   c5.4,0.5,10.7,1.1,15.9,1.9c19.6-3.7,39.6-8.1,59.8-13.3c54.3-13.9,109.7-33.5,160.1-60.9c-1.3,0.4-2.6-0.2-3.1-1.5   c-0.5-1.3,0.2-2.6,1.5-3.1c6.1-2.2,12.4-3.8,18.7-5.1c40.9-24.2,77.9-54.1,107.7-90.8c9.6-11.8,18.5-24.4,26.4-37.7   c0.7-1.1,0.3-2.6-0.8-3.3c-1.1-0.7-2.6-0.3-3.3,0.8c-8.1,13.5-17.1,26.3-26.9,38.3c-29.5,36-66.1,65.4-106.7,89.3   c-37.6,22.1-78.5,39.5-120,53.3c-4.8,4-10,7.5-15.6,10.1c-1.2,0.6-2.7,0-3.2-1.2c-0.6-1.2,0-2.7,1.2-3.2c0.1-0.1,0.2-0.1,0.4-0.2   c-42.5,13-85.2,22.3-125.3,28.9c-22.9,3.8-44.9,6.6-65.5,8.8c-7.3,3.9-14.7,6.5-22,7C3325.2,2698.4,3359.4,2694.2,3395.5,2687.9z"/><path class="st2" d="M3596,2918.2c0-0.3-0.1-0.5-0.2-0.7C3595.8,2917.7,3595.9,2918,3596,2918.2z"/><path class="st2" d="M3657.7,2841.6c10.1-8.1,18.7-17.7,25.7-26.9c13.2-17.4,20.5-33.1,20.6-33.2c0.6-1.2,0-2.7-1.2-3.2   c-1.2-0.6-2.7,0-3.2,1.2l0,0l-0.1,0.2c-0.8,1.7-8.4,17.3-21.2,33.8c-6.8,8.8-15.1,17.8-24.6,25.2c-8.3,6.5-17.6,11.8-27.7,14.6   c-0.1,0-0.2,0.1-0.3,0.1c-1.3,0.4-2,1.7-1.7,3c0.3,1.2,1.6,2,2.8,1.7c0,0,0.1,0,0.1,0c0.1,0,0.1,0,0.2,0c7.6-2.1,14.7-5.5,21.2-9.6   C3651.6,2846.2,3654.7,2844,3657.7,2841.6z"/><path class="st2" d="M3393,2685.2c-0.1,1.3,0.9,2.5,2.2,2.6c0.1,0,0.2,0,0.3,0c11.3,1,22.1,2.8,32.4,5.1   c20.7,4.6,39,11.3,53.4,17.8c10.9,4.8,19.6,9.4,25.6,12.9c3,1.7,5.3,3.1,6.9,4.1c0.8,0.5,1.4,0.9,1.8,1.1l0.4,0.3l0.1,0.1   c1.1,0.7,2.6,0.5,3.4-0.6c0.7-1.1,0.5-2.6-0.6-3.4h0c-0.2-0.1-35.6-24-86.4-36.1c-6.7-1.6-13.7-3-20.9-4.1   c-5.2-0.8-10.5-1.4-15.9-1.9C3394.3,2682.9,3393.1,2683.9,3393,2685.2z"/><path class="st2" d="M3292.2,2698.8c0.1,1.3,1.2,2.3,2.6,2.2c0,0,0,0,0,0c0,0,0,0,0.1,0c7.3-0.5,14.7-3.1,22-7   c5.4-2.9,10.8-6.6,16.1-10.8c4.9-3.9,9.8-8.3,14.5-13c13-12.9,24.9-27.7,34.4-40.6c6.4-8.8,11.7-16.7,15.4-22.3   c1.8-2.8,3.3-5.1,4.3-6.7c0.5-0.8,0.9-1.4,1.1-1.8l0.3-0.4l0-0.1l0,0c0.1-0.1,0.1-0.2,0.2-0.2h0l0.1-0.1l0.1-0.2l0.1-0.2   c0-0.1,0.1-0.2,0.1-0.6c0-0.4-0.1-0.8-0.2-1c-0.2-0.5-0.5-0.7-0.6-0.8c-0.2-0.2-0.4-0.3-0.5-0.3l-0.2-0.1c-0.3-0.1-0.6-0.2-0.8-0.2   c-0.8,0-1.1,0.3-1.3,0.4c-0.4,0.2-0.4,0.3-0.5,0.4l-0.2,0.2l-0.2,0.3c-0.4,0.6-1.5,2.5-3.4,5.4c-6.6,10.4-22,33.6-40.8,54.5   c-6.3,7.1-13.1,13.8-19.9,19.8c-3.3,2.9-6.6,5.5-10,7.9c-10.3,7.4-20.7,12.2-30.3,12.8c0,0,0,0,0,0   C3293.1,2696.3,3292.1,2697.5,3292.2,2698.8z M3402.1,2599L3402.1,2599L3402.1,2599L3402.1,2599z M3398.8,2595.9L3398.8,2595.9   L3398.8,2595.9L3398.8,2595.9z"/><path class="st2" d="M3506.1,2659.7c0.6,1.2,2,1.7,3.2,1.2c5.6-2.6,10.7-6,15.6-10.1c6.3-5.2,11.9-11.5,17-18.3   c3.1-4.2,6-8.7,8.8-13.2c9.1-15.1,16-31.4,20.9-45.1c6.4-17.8,9.4-31,9.4-31.1c0.3-1.3-0.5-2.6-1.8-2.9c-1.3-0.3-2.6,0.5-2.9,1.8   l0,0c0,0-0.1,0.3-0.2,1c-1.2,5.1-7.2,28.4-18.6,53c-4.6,10-10.1,20.2-16.6,29.5c-1.5,2.1-2.9,4.2-4.5,6.1   c-8.3,10.6-17.9,19.5-28.7,24.5c-0.1,0.1-0.2,0.1-0.4,0.2C3506.1,2657.1,3505.5,2658.5,3506.1,2659.7z"/><path class="st2" d="M3628.3,2609.3c0.4,1.3,1.8,1.9,3.1,1.5c0,0,0,0,0,0c12.7-4.6,26.7-6.9,40.2-8c6.2-0.5,12.4-0.7,18.2-0.7   c11.5,0,21.8,0.8,29.6,1.8c3.9,0.5,7.1,1,9.5,1.5c1.2,0.2,2.2,0.5,2.9,0.7c0.7,0.2,1.3,0.4,1.3,0.4c1.2,0.6,2.6,0.1,3.3-1.1   c0.6-1.2,0.1-2.6-1.1-3.3h0c-0.6-0.3-1.3-0.5-2.2-0.8c-3.1-0.9-8.7-1.9-16.3-2.7c-7.5-0.8-16.8-1.5-27.1-1.5   c-5.1,0-10.5,0.2-15.9,0.5c-8.3,0.6-16.9,1.6-25.4,3.4c-6.4,1.3-12.7,3-18.7,5.1C3628.5,2606.6,3627.9,2608,3628.3,2609.3z"/><path class="st2" d="M3359.1,2328.5c1.1,0.7,2.6,0.4,3.3-0.8c0,0,0-0.1,0.1-0.1c8.1-13,16.8-25.6,25.4-37.3   c9-12.3,17.9-23.5,25.7-33c7.6-9.3,14.2-16.9,18.9-22.1c2.3-2.6,4.2-4.7,5.5-6.1c0.6-0.7,1.1-1.2,1.5-1.6c0.3-0.4,0.5-0.5,0.5-0.5   c0.9-1,0.9-2.5-0.1-3.4s-2.5-0.9-3.4,0.1h0c0,0-25.9,27.6-53,64.5c-5,6.8-10,13.8-14.9,21.1c-3.5,5.2-6.9,10.5-10.3,15.9   C3357.6,2326.3,3357.9,2327.8,3359.1,2328.5z"/><path class="st2" d="M3329.4,2396.3c1,0.2,1.9-0.3,2.4-1c0.1-0.1,0.1-0.2,0.1-0.3c0.1-0.2,0.2-0.4,0.3-0.7c0.4-2.3,0.6-4.9,0.6-7.8   c0-1.1,0-2.2-0.1-3.3c-0.3-8.5-1.8-19.1-4-30.5c-0.1-0.3-0.1-0.7-0.2-1c-7.3-38.8-21.4-86.4-21.4-86.4c-0.4-1.3-1.7-2-3-1.6   c-1.3,0.4-2,1.7-1.6,3l0,0c0,0,0.4,1.3,1.1,3.7c2.4,8.5,8.5,30.1,14,53.3c2.7,11.6,5.3,23.7,7.2,34.6c0.1,0.3,0.1,0.6,0.1,0.9   c1.8,10.6,2.9,20.2,2.9,27.3c0,2.5-0.1,4.6-0.4,6.4c0,0.2,0,0.4-0.1,0.5C3327.2,2394.8,3328.1,2396.1,3329.4,2396.3z"/><path class="st1" d="M3419.4,2790.2c-52,0-99,21.4-132.7,55.9c-0.7,0.7-1.4,1.3-2,2c-15.2-5.3-31.1-9.1-47.5-11.3   c-11.2-1.5-22.7-2.4-34.3-2.4c-2.2,0-4.3,0-6.5,0.1c-30.8,115.8-124.9,205.8-243,230.7c0,0.4-0.1,0.7-0.1,1.1H3737   c-10.3-51.6-43.8-94.7-89.2-118.1c-14.8-7.6-30.9-13.2-47.8-16.2c-1.1-4.7-2.5-9.3-4-13.8c-0.1-0.2-0.1-0.5-0.2-0.7   c-3.2-9.6-7.1-18.8-11.8-27.7c-4.1-7.9-8.8-15.4-14-22.5c-1.1-1.5-2.2-3-3.3-4.5C3532.8,2818.7,3479.4,2790.2,3419.4,2790.2z"/><path class="st1" d="M944.7,3103.9h121.9c2,0,3.6,1.6,3.6,3.6c0,2-1.6,3.6-3.6,3.6H949.3c32.5,46.7,114.7,87.1,301.7,87.1   c442.8,0,1696.5,63.2,1807.1,0c64.6-36.9,77.8-88.2-8.8-124.5H933C935.1,3083.7,938.9,3093.9,944.7,3103.9z M1100.2,3145.4h121.9   c2,0,3.6,1.6,3.6,3.6c0,2-1.6,3.6-3.6,3.6h-121.9c-2,0-3.6-1.6-3.6-3.6C1096.5,3147,1098.2,3145.4,1100.2,3145.4z"/><path class="st1" d="M853.1,2628.4c-90.3,10.3-212.8,15.4-330.3-8.9c-27.6-31-67.1-51.2-111.3-53.3c0.3-3.3,0.4-6.6,0.4-10   c0-66.6-54-120.7-120.7-120.7c-47.7,0-88.9,27.6-108.5,67.8c-78.4,2.4-141.3,66.7-141.3,145.7c0,80.5,65.3,145.8,145.8,145.8   c23.9,0,46.4-5.8,66.2-15.9c22,61.7,80.9,105.9,150.1,105.9c87.6,0,158.7-70.7,159.3-158.2c49.9-32.5,133.5-58,273.3-49.4   c4.4-13.9,9.4-28.9,15.3-44.8C852.1,2631,852.6,2629.7,853.1,2628.4z"/><path d="M2455,1524.5c3.3-14.6,6.7-33.5,6.7-50.9c0-11-1.3-21.5-5.1-30c-4.1-9-8.8-14.9-13.8-18.5c-2.1-1.5-4.3-2.6-6.4-3.4   c0.4,2.8,0.6,5.6,0.6,8.3c0.5,0.3,1,0.6,1.5,1c3.7,2.7,7.8,7.4,11.5,15.6c3.2,7,4.5,16.6,4.5,27c0,16.5-3.2,35-6.5,49.3   c-1.6,7.2-3.3,13.3-4.5,17.6c-0.1,0.3-0.2,0.5-0.2,0.8l8.6-4C2452.8,1533.7,2453.9,1529.3,2455,1524.5z"/><path class="st3" d="M2428.8,1420.4c-1.2-7.7-3.7-14.7-6.9-20.3c-3.2-5.6-7.1-9.8-11-12.2c-2.6-1.6-5.2-2.3-7.7-2.3   c-0.6,0-1.3,0.1-1.9,0.2c-2.2,0.4-4.2,1.3-6.1,2.9c-1.9,1.6-3.7,3.7-5.1,6.5c-3,5.5-4.8,13.1-4.8,21.7c0,3.4,0.3,6.9,0.9,10.5   c1.2,7.7,3.7,14.7,6.9,20.3c3.2,5.6,7.1,9.8,11,12.2c2.6,1.6,5.2,2.3,7.7,2.3c0.6,0,1.3,0,1.9-0.2c2.2-0.4,4.2-1.3,6.1-2.9   c1.9-1.6,3.7-3.7,5.1-6.5c3-5.5,4.8-13.1,4.8-21.7C2429.7,1427.5,2429.4,1424,2428.8,1420.4L2428.8,1420.4z"/><path class="st4" d="M2436,1419.2l-3.6,0.6L2436,1419.2c-1.8-11.4-6.1-21.3-11.8-28.7c-2.8-3.7-6.1-6.7-9.6-8.8   c-3.5-2.1-7.4-3.4-11.4-3.4c-1,0-2,0.1-3,0.2c-3.6,0.6-6.8,2.2-9.6,4.4c-4.1,3.4-7.2,8.3-9.4,14.1c-2.1,5.8-3.2,12.5-3.2,19.7   c0,3.8,0.3,7.7,0.9,11.6c1.8,11.4,6.1,21.3,11.8,28.7c2.8,3.7,6.1,6.7,9.6,8.8c3.5,2.1,7.4,3.4,11.4,3.4c1,0,2-0.1,3-0.2   c3.6-0.6,6.8-2.2,9.6-4.4c4.1-3.4,7.2-8.3,9.4-14.1c2.1-5.8,3.2-12.5,3.2-19.7c0-0.3,0-0.6,0-0.9c0-2.7-0.3-5.5-0.6-8.3   C2436.2,1420.9,2436.1,1420.1,2436,1419.2z M2429.7,1430.9c0,8.6-1.8,16.3-4.8,21.7c-1.5,2.7-3.2,4.9-5.1,6.5   c-1.9,1.6-3.9,2.5-6.1,2.9c-0.6,0.1-1.3,0.2-1.9,0.2c-2.5,0-5-0.8-7.7-2.3c-3.9-2.4-7.8-6.6-11-12.2c-3.2-5.6-5.7-12.6-6.9-20.3   c-0.6-3.6-0.9-7.1-0.9-10.5c0-8.6,1.8-16.3,4.8-21.7c1.5-2.7,3.2-4.9,5.1-6.5c1.9-1.6,3.9-2.5,6.1-2.9c0.6-0.1,1.3-0.2,1.9-0.2   c2.5,0,5,0.8,7.7,2.3c3.9,2.4,7.8,6.6,11,12.2c3.2,5.6,5.7,12.6,6.9,20.3l0,0C2429.4,1424,2429.7,1427.5,2429.7,1430.9z"/><path d="M2262.3,2638.5c2.4-5.8,4.9-14.1,4.9-23.9c0-9.7-2.4-20.9-9.8-32.9c-2.4-3.9-6.4-8.1-11.5-12.3   c-5.2-4.2-11.5-8.5-18.6-12.6c-0.6-0.3-1.1-0.6-1.7-1c-4.4,4.8-8.5,11.6-9.8,21c-0.3,2-2.1,3.4-4.1,3.1c-2-0.3-3.4-2.1-3.1-4.1   c1.4-10.3,5.7-18,10.5-23.6c-9.6-5.1-20.1-10.1-30.8-14.7c-6.2,6.9-12.4,16.4-15.1,28.7c-0.4,2-2.4,3.2-4.3,2.8   c-2-0.4-3.2-2.4-2.8-4.3c2.8-12.7,8.9-22.7,15.2-30.2c-0.9-0.4-1.7-0.7-2.6-1.1c-9.7-4-19.3-7.7-28.3-10.9   c-5.2,4.6-11.1,10.7-15.5,17.5c-3.4,5.2-5.9,10.7-6.7,16.3c-0.3,2-2.2,3.3-4.1,3c-2-0.3-3.3-2.2-3-4.1c1.1-7,4.1-13.4,7.8-19.2   c3.8-5.8,8.3-10.9,12.7-15.2c0.4-0.4,0.8-0.7,1.2-1.1c-9.5-3.4-18-6.2-24.8-8.4c-1.3,0.9-2.4,1.6-3.4,2.1c-0.8,0.4-1.4,0.7-2,0.9   l0,0l0,0l-0.1,0l-0.3,0.1c-0.2,0.1-0.6,0.2-1,0.4c-0.8,0.3-1.9,0.8-3.2,1.3c-2.7,1-6.5,2.4-11.3,3.7c-9.7,2.6-23.7,5.1-42.1,5.1   c-13.6,0-29.5-1.4-47.9-5c-0.5,0.8-0.9,1.6-1.5,2.5c-3.9,6.6-9.1,15.9-14.7,26.3c-11.1,20.9-23.5,46.7-28.3,65.7   c-1.4,5.4-2.1,10.3-2.1,14.2c0,2.7,0.4,4.9,1,6.5c76.3,2.6,173.6,6,297.6,10.6c0.1-0.2,0.3-0.4,0.4-0.7   C2259.8,2643.7,2261.1,2641.4,2262.3,2638.5z"/><path d="M2117.8,2511.5c6.7,2.2,15.3,5,24.8,8.4c2.2-2,4.3-3.9,6.2-5.5c-9.2-3.3-17.6-6.1-24.5-8.4   C2122.1,2508.2,2119.8,2510.1,2117.8,2511.5z"/><path d="M2274.4,2614.6c0-10.9-2.8-23.6-10.8-36.7c-3.2-5.2-8.2-10.2-14.2-15c-5.3-4.2-11.4-8.2-18.2-12.2   c-1.1,0.8-2.2,1.7-3.4,2.8c-0.8,0.7-1.5,1.5-2.3,2.3c0.6,0.3,1.1,0.6,1.7,1c7.1,4.2,13.5,8.4,18.6,12.6c5.2,4.2,9.1,8.4,11.5,12.3   c7.4,11.9,9.7,23.1,9.8,32.9c0,9.7-2.4,18-4.9,23.9c-1.2,2.9-2.4,5.2-3.3,6.8c-0.1,0.3-0.3,0.5-0.4,0.7c2.7,0.1,5.4,0.2,8.1,0.3   c0.7-1.4,1.5-3.1,2.3-5C2271.7,2634.8,2274.4,2625.6,2274.4,2614.6z"/><path d="M2152.5,2520.7c-0.7,0.6-1.4,1.2-2.2,1.9c9,3.3,18.6,6.9,28.3,10.9c0.9,0.4,1.7,0.7,2.6,1.1c1.5-1.7,2.9-3.4,4.4-4.8   c0.3-0.3,0.6-0.6,0.9-0.9c-10.1-4.2-20.2-8.2-29.7-11.7C2155.5,2518.3,2154.1,2519.4,2152.5,2520.7z"/><path d="M2190.7,2534.9c-0.8,0.8-1.7,1.7-2.5,2.7c10.7,4.6,21.2,9.6,30.8,14.7c1.3-1.5,2.5-2.8,3.8-4c0.5-0.5,1-0.9,1.5-1.4   c-5-2.7-10.2-5.4-15.6-8c-4.9-2.4-10-4.7-15-6.9C2192.8,2532.9,2191.8,2533.9,2190.7,2534.9z"/><path d="M1962.1,2614.6c4.8-19,17.2-44.9,28.3-65.7c5.6-10.4,10.8-19.7,14.7-26.3c0.5-0.9,1-1.7,1.5-2.5c-1.1-0.2-2.2-0.4-3.4-0.7   c-1.1-0.2-2-0.9-2.5-1.9c-0.2-0.3-0.3-0.6-0.5-0.9c-5,8.5-13,22.5-21.1,38.2c-6.5,12.8-13.1,26.6-18,39.5c-2.5,6.5-4.5,12.7-6,18.5   c-1.5,5.8-2.3,11.2-2.3,15.9c0,2.2,0.2,4.3,0.6,6.2c2.5,0.1,5.1,0.2,7.6,0.3c-0.6-1.6-1-3.8-1-6.5   C1959.9,2624.9,1960.7,2620.1,1962.1,2614.6z"/><path class="st3" d="M2020.1,2475.9c-1.2,3.8-1.8,7.2-1.8,9.8c0,1.6,0.2,2.8,0.6,3.8c0.4,1,0.3,2.1-0.2,3c-0.5,0.9-1.4,1.6-2.4,1.8   c-3.2,0.7-5.9,1.3-8.1,1.9c-2.1,0.6-3.7,1.3-4.6,1.8c-0.6,0.4-0.9,0.7-1.1,1c-0.2,0.4-0.4,0.7-0.4,1.6c0,1,0.3,2.7,1.2,5   c0.7,1.9,1.8,4.3,3.1,7.1c18.6,3.8,34.6,5.1,48.1,5.1c25,0,41.3-4.7,49.4-7.7c2.7-1,4.5-1.8,5.5-2.2c0.3-0.1,0.5-0.2,0.8-0.3v0l0,0   l0.1,0l0.4-0.2c0.3-0.2,0.8-0.4,1.3-0.7c1-0.6,2.3-1.5,3.7-2.6c2.7-2.2,5.7-5.3,7.5-8.8c1.2-2.4,2-4.9,2-7.7c0-1.7-0.3-3.4-0.9-5.3   c-0.5-1.4,0-3,1.1-3.9c3.4-2.8,6.1-7,7.9-11.8c0.5-1.3,0.9-2.7,1.3-4c-8.7,4.5-20.7,8.2-36.4,8.2c-17.7,0-40-4.6-67.7-17.7   c-0.1,0.1-0.2,0.3-0.2,0.4C2025.9,2461.3,2022.2,2469.3,2020.1,2475.9z"/><path class="st4" d="M2003.1,2519.4c1.2,0.2,2.3,0.4,3.4,0.7c18.4,3.6,34.3,5,47.9,5c18.4,0,32.4-2.5,42.1-5.1   c4.9-1.3,8.6-2.6,11.3-3.7c1.4-0.5,2.4-1,3.2-1.3c0.4-0.2,0.7-0.3,1-0.4l0.3-0.1l0.1,0l0,0l0,0c0.7-0.2,1.3-0.5,2-0.9   c0.9-0.5,2.1-1.2,3.4-2.1c2-1.4,4.3-3.2,6.4-5.5c0.3-0.3,0.6-0.6,0.9-1c1.9-2.2,3.7-4.7,5-7.6c1.3-2.9,2.2-6.2,2.2-9.8   c0-1.7-0.2-3.5-0.6-5.4c3.6-3.6,6.4-8.2,8.3-13.1c1.5-3.8,2.4-7.8,2.9-11.8c-0.6,0.5-1.2,0.9-1.9,1.4c-1.9,1.3-4,2.6-6.4,3.8   c-0.4,1.4-0.8,2.7-1.3,4c-1.8,4.8-4.6,9-7.9,11.8c-1.1,1-1.6,2.5-1.1,3.9c0.6,1.9,0.9,3.7,0.9,5.3c0,2.8-0.7,5.3-2,7.7   c-1.8,3.5-4.8,6.6-7.5,8.8c-1.4,1.1-2.7,2-3.7,2.6c-0.5,0.3-1,0.6-1.3,0.7l-0.4,0.2l-0.1,0l0,0v0c-0.3,0.1-0.5,0.2-0.8,0.3   c-1,0.4-2.8,1.2-5.5,2.2c-8.1,3-24.4,7.7-49.4,7.7c-13.5,0-29.5-1.4-48.1-5.1c-1.4-2.8-2.4-5.1-3.1-7.1c-0.8-2.3-1.2-4-1.2-5   c0-0.9,0.2-1.2,0.4-1.6c0.2-0.3,0.5-0.6,1.1-1c0.9-0.6,2.4-1.2,4.6-1.8c2.1-0.6,4.8-1.2,8.1-1.9c1-0.2,1.9-0.9,2.4-1.8   c0.5-0.9,0.6-2,0.2-3c-0.4-1-0.6-2.2-0.6-3.8c0-2.6,0.6-6,1.8-9.8c2-6.7,5.7-14.6,10.1-22.6c0.1-0.1,0.2-0.3,0.2-0.4   c-1-0.5-2-0.9-3-1.4c-0.6-0.3-1.1-0.8-1.5-1.4c-0.4-0.6-0.7-1.3-1.1-1.9c-2.3,4.1-4.5,8.2-6.3,12.2c-2.2,4.6-4,9.1-5.3,13.4   c-1.3,4.2-2.1,8.2-2.1,11.9c0,0.8,0.1,1.5,0.1,2.3c-4.1,0.9-7.5,1.8-10.2,3.2c-1.7,0.9-3.3,2.1-4.5,3.7c-1.2,1.7-1.7,3.7-1.7,5.7   c0,2.4,0.6,4.7,1.6,7.5c0.9,2.5,2.2,5.3,3.8,8.5c0.2,0.3,0.3,0.6,0.5,0.9C2001.1,2518.5,2002.1,2519.2,2003.1,2519.4z"/><path class="st3" d="M1879.3,1066.5c0,28.1,1.9,47.2,4.4,60.1c1.5,7.7,3.1,13.1,4.6,16.9c2,0.2,4.1,0.4,6.2,0.4   c9.3,0,19.4-2.3,29.5-9c10.1-6.7,20.4-17.8,29.7-35.7c6.9-13.3,11.2-27.9,13.3-43c-1.4,0.2-2.9,0.3-4.3,0.3   c-6.9,0-13.1-3.2-17.5-8.2c-4-4.5-6.5-10.6-6.9-17.3h-58C1879.6,1044.2,1879.3,1056,1879.3,1066.5z"/><path class="st3" d="M1855.3,1130.9L1855.3,1130.9L1855.3,1130.9L1855.3,1130.9c-0.8-3.1-1.6-6.4-2.3-9.9   c-2.7-14.1-3.5-30.8-3.5-47c0-7.1,0.2-14,0.4-20.6c-3.3,1.9-6.7,3.6-10.2,5.1c-0.3,0.1-0.7,0.2-1,0.4c-0.6,3.2-1.2,6.3-1.9,9.5   c-1.4,6.6-3.1,12.8-5.2,17.8c-1.1,2.7-2.5,5.1-4.3,7.1c-1.7,2-3.8,3.5-6,4.7c-4.5,2.3-9.7,3.1-15.3,3.1c-5.2,0-10.9-0.6-17-1.5   c-3.1,6-6.5,11.8-10.1,17.2c14.9,5.7,28.1,13.6,38.2,24.5c4,4.3,7.4,9.2,10.3,14.4l23-24.3   C1851.7,1130,1853.8,1129.8,1855.3,1130.9z"/><path class="st3" d="M1945.1,1009.9c4.4-5,10.6-8.2,17.5-8.2c1.1,0,2.2-0.1,3.4-0.1c-0.9-5.4-1.9-10.8-3.2-16.1   c-2.3-0.1-4.7-0.2-7.1-0.2c-12.6,0-26.3,1.7-39.3,7.4c-12.9,5.6-25.3,15.1-35.7,31h57.9C1939.5,1018.4,1941.8,1013.7,1945.1,1009.9   z"/><path class="st4" d="M1967,1056.2c-2.1,15.1-6.4,29.7-13.3,43c-9.3,17.9-19.6,29.1-29.7,35.7c-10.1,6.7-20.2,8.9-29.5,9   c-2.1,0-4.2-0.1-6.2-0.4c1,2.6,2,4.4,2.8,5.6c0.6,0.9,1.1,1.5,1.5,1.9c0.6,0,1.3,0.1,1.9,0.1c10.5,0,22.1-2.7,33.5-10.1   c11.4-7.5,22.4-19.7,32.2-38.5c7.8-15,12.4-31.5,14.4-48.3c-0.5,0.2-1,0.5-1.5,0.7C1971.1,1055.5,1969,1055.9,1967,1056.2z"/><path class="st4" d="M1855.3,1131L1855.3,1131L1855.3,1131L1855.3,1131c-1.6-1.2-3.6-1-4.9,0.4l-23,24.3c1.2,2.3,2.3,4.6,3.3,7.1   l22.8-24.2c1.4,0.9,3.4,2.1,5.9,3.4c-0.3-0.6-0.6-1.3-0.9-1.9C1857.3,1137.2,1856.3,1134.2,1855.3,1131z"/><path class="st4" d="M1779.1,1116.7c3.5-5.5,6.9-11.2,10.1-17.2c-2.5-0.4-5-0.7-7.6-1.1c-3,5.5-6.2,10.8-9.5,15.9   C1774.4,1115,1776.8,1115.8,1779.1,1116.7z"/><path class="st4" d="M1962.9,985.5c1.3,5.3,2.3,10.7,3.2,16.1c1.2-0.1,2.4-0.1,3.7-0.1c1.2,0,2.5,0.1,3.7,0.3   c-0.8-5.3-1.8-10.6-3-15.7C1968,985.8,1965.5,985.7,1962.9,985.5z"/><path d="M2226.7,1677.1c1.1,0.7,2.4,1.4,4.1,2c2.3,0.8,5.1,1.4,8.6,1.9c4.4,0.6,9.8,1.1,16.2,1.4l1.4-0.6c-0.7-2.2-1.9-5.2-4.1-8.6   c-2.5-3.7-6.2-8.1-11.9-12.5l-1.3,8.7c-0.3,1.9-2.1,3.3-4,3.1c0,0-4.7-0.6-12.9-1.7c0.2,1,0.4,1.8,0.8,2.6   C2224.2,1674.9,2225.1,1676,2226.7,1677.1z"/><path d="M2342.5,1610.1l-23.2,9.4c2.2,1.4,4.3,3,6.2,4.6c6.8,5.7,12.4,12.7,16.1,21.1l11-4.7L2342.5,1610.1z"/><path d="M2352.6,1640.5l-11,4.7c1,2.2,1.8,4.4,2.5,6.8l10.8-4.7L2352.6,1640.5z"/><path d="M2223.2,1683.5c3.5,2.2,7.9,3.5,13.3,4.4c5.4,0.9,11.8,1.4,19.6,1.8c0.6,0,1.1-0.1,1.6-0.3l1.4-0.6   c-0.8-0.6-1.2-1.6-1.3-2.6l0-0.2c0,0,0-1.6-0.8-4.2l-1.4,0.6c-6.4-0.4-11.8-0.8-16.2-1.4c-3.5-0.5-6.3-1.1-8.6-1.9   c-1.7-0.6-3-1.2-4.1-2c-1.6-1.1-2.6-2.2-3.3-3.8c-0.3-0.7-0.6-1.6-0.8-2.6c-2.2-0.3-4.7-0.6-7.5-1c0.3,3,1,5.7,2.4,8.1   C2218.9,1680.1,2220.9,1682,2223.2,1683.5z"/><path d="M2319.3,1619.5l23.2-9.4l-2.3-6.9l-28.8,11.6C2314.1,1616.3,2316.8,1617.8,2319.3,1619.5z"/><path class="st5" d="M2703,1970.6c-3.5-42-19.3-69.4-38.7-87.9c-13.7-13-29.4-21.5-44-27.2c23.4,58.3,50.1,123.4,80.4,194.4   c2.4-11.9,3.9-26.7,3.9-45.2C2704.5,1994.4,2704.1,1983.1,2703,1970.6z"/><path class="st4" d="M2620.3,1855.5c14.6,5.7,30.3,14.2,44,27.2c19.5,18.5,35.2,45.9,38.7,87.9c1,12.5,1.5,23.9,1.5,34.1   c0,18.5-1.5,33.2-3.9,45.2c1.6,3.8,3.2,7.5,4.8,11.3c3.9-14,6.4-32.3,6.4-56.5c0-10.4-0.5-22-1.5-34.7   c-2.7-32.5-12.6-57.1-26.1-75.6c-19.2-26.3-45.3-40.3-67.5-47.9C2617.8,1849.4,2619,1852.4,2620.3,1855.5z"/><path class="st3" d="M2684.9,1605c0-7.6-0.6-15.6-2-23.7l0,0c-2.7-16.3-7.9-31.1-14.6-43.1c-6.7-12-14.9-21.2-23.3-26.5   c-2.8-1.8-5.7-3.1-8.5-4l34.5,149.6c1.5-2.1,3-4.4,4.3-7C2681.4,1638.7,2685,1622.8,2684.9,1605z"/><path class="st4" d="M2636.5,1507.7c2.8,0.9,5.7,2.2,8.5,4c8.5,5.3,16.6,14.5,23.3,26.5c6.7,12,11.9,26.7,14.6,43.1l0,0   c1.4,8.1,2,16.1,2,23.7c0,17.8-3.5,33.8-9.6,45.4c-1.3,2.6-2.8,4.9-4.3,7l2.1,8.9c5.6-6,10-13.9,13.2-23c3.9-11.1,6-24.2,6-38.3   c0-8-0.7-16.4-2.1-24.9l-3.6,0.6l3.6-0.6c-3.8-22.8-12.2-42.8-23.1-57.2c-5.5-7.2-11.6-13.1-18.1-17.2c-4.5-2.8-9.3-4.8-14.2-5.8   L2636.5,1507.7z"/><path class="st3" d="M981.7,2287.3l-10.8,10.1l28.8,78.5c5.4-6.3,11-12.5,16.8-18.6c16.8-17.9,34.9-35.2,54.3-51.6l-31.1-72.4   L981.7,2287.3z"/><path class="st4" d="M981.7,2287.3l58-54l31.1,72.4c1.9-1.6,3.9-3.2,5.8-4.8l-31.2-72.9L981.7,2287.3z"/><path class="st4" d="M999.6,2375.9l-28.8-78.5l-5.8,5.4l29.1,79.5C996,2380.1,997.8,2378,999.6,2375.9z"/><path d="M1258.7,2973.4c-113.5,0-207.1-85.5-219.8-195.6h-92c6.2,76.1,39.6,144.5,90.6,195.5c56.6,56.6,134.9,91.7,221.3,91.7   c86.4,0,164.6-35,221.3-91.7c51-51,84.4-119.4,90.6-195.5h-92C1465.8,2887.9,1372.2,2973.4,1258.7,2973.4z"/><path d="M1197.7,3066.4h122c55.1-10.6,105.2-35.4,146.3-70.3c63-53.5,104.9-130.9,111.9-218.3h-7.3   c-6.2,76.1-39.7,144.5-90.6,195.5c-56.6,56.6-134.9,91.7-221.3,91.7c-86.4,0-164.6-35-221.3-91.7c-50.9-51-84.4-119.4-90.6-195.5   h-7.3c4.9,60.9,26.7,116.9,60.8,163.4C1047.2,3005,1117,3050.8,1197.7,3066.4z"/><path class="st3" d="M1258.7,2966.1c59.1,0,112.6-24,151.4-62.7c33-33,55.3-76.8,61.2-125.6h-110c-11.5,45.9-53.1,80-102.6,80   c-49.5,0-91.1-34-102.6-80h-110c5.9,48.8,28.1,92.6,61.2,125.6C1146,2942.2,1199.5,2966.1,1258.7,2966.1z M1165.9,2875.4   c1.3-1.5,3.6-1.7,5.1-0.3l0.1,0.1l0.3,0.3c0.3,0.3,0.8,0.6,1.4,1.1c1.2,1,2.9,2.3,4.9,3.9c4.1,3.1,9.8,7,15.6,10.1   c3.9,2.1,7.8,3.7,11.4,4.6c1.9,0.5,3.1,2.5,2.6,4.4c-0.5,1.9-2.5,3.1-4.4,2.6c-4.4-1.1-8.8-3-13-5.3c-4.2-2.2-8.2-4.8-11.7-7.2   c-7-4.9-11.9-9.2-12-9.2h0C1164.7,2879.2,1164.6,2876.9,1165.9,2875.4z M1104.5,2860.7c1.8-0.9,4-0.2,4.9,1.6l0,0l0,0l0,0l0,0   l0.1,0.2c0.1,0.2,0.2,0.4,0.4,0.8c0.4,0.7,1,1.8,1.9,3.1c1.8,2.7,4.7,6.6,8.9,11.3c8.4,9.4,22.1,22,43.2,34.3c1.7,1,2.3,3.2,1.3,5   c-1,1.7-3.2,2.3-5,1.3c-43.6-25.4-57.2-52.3-57.4-52.8h0C1102,2863.8,1102.7,2861.6,1104.5,2860.7z"/><path class="st4" d="M1258.7,2973.4c113.5,0,207.1-85.5,219.9-195.6h-7.3c-5.9,48.8-28.1,92.6-61.2,125.6   c-38.8,38.7-92.3,62.7-151.4,62.7c-59.1,0-112.6-24-151.4-62.7c-33-33-55.3-76.8-61.2-125.6h-7.3   C1051.6,2887.9,1145.1,2973.4,1258.7,2973.4z"/><path d="M1258.7,2850.5c27.2,0,51.8-11,69.6-28.8c12-12,20.9-27,25.4-43.9h-190.1c4.6,16.8,13.4,31.9,25.4,43.9   C1206.9,2839.5,1231.5,2850.5,1258.7,2850.5z"/><path d="M1258.7,2857.8c49.5,0,91.1-34,102.6-80h-7.5c-4.6,16.8-13.4,31.9-25.4,43.9c-17.8,17.8-42.4,28.8-69.6,28.8   c-27.2,0-51.8-11-69.6-28.8c-12-12-20.9-27-25.4-43.9h-7.5C1167.6,2823.8,1209.2,2857.8,1258.7,2857.8z"/><path d="M2665.6,2973.3c56.6,56.6,134.9,91.7,221.3,91.7c86.4,0,164.6-35,221.3-91.7c56.6-56.6,91.7-134.9,91.7-221.3   c0-86.4-35-164.6-91.7-221.3c-21.5-21.5-46.1-39.9-73.1-54.4c-11.8,1.2-23.6,1.9-35.3,1.9c-37.1,0-73.2-6.2-106.2-18.1   c-13.8-5-29.5-7.7-46.2-7.7c-10.3,0-21.1,1-31.9,3.2l32.4,78.5c12.7-2.2,25.7-3.4,39-3.4c122.3,0,221.4,99.1,221.4,221.4   c0,122.3-99.1,221.3-221.4,221.4c-122.3,0-221.3-99.1-221.4-221.4c0-74.3,36.6-140,92.8-180.2l-28.8-71.5c-6.8,7-12.6,14.4-17.1,22   c-22.7,38.4-60.1,70.5-105.7,90.3c-20.9,42-32.7,89.3-32.7,139.3C2574,2838.5,2609,2916.7,2665.6,2973.3z"/><path d="M3035.1,2476.3c27,14.5,51.6,32.9,73.1,54.4c56.6,56.6,91.7,134.9,91.7,221.3c0,86.4-35,164.6-91.7,221.3   c-56.6,56.6-134.9,91.7-221.3,91.7c-86.4,0-164.6-35-221.3-91.7c-56.6-56.6-91.7-134.9-91.7-221.3c0-50.1,11.8-97.4,32.7-139.3   c-3.3,1.4-6.6,2.8-10,4.1c-19.2,41.1-29.9,86.9-29.9,135.2c0,156,111.5,285.9,259.2,314.4h122c1.8-0.4,3.7-0.7,5.5-1.1   c118.1-24.9,212.2-114.9,243-230.7c7-26.3,10.8-54,10.8-82.5c0-15.7-1.2-31.1-3.3-46.2c-0.2-1.6-0.5-3.2-0.7-4.8   c-5.8-36.4-17.8-70.7-34.7-101.9c-0.3-0.6-0.6-1.1-1-1.7c-0.8-1.5-1.6-2.9-2.4-4.3c-28.1-49-68.8-89.9-117.7-118.3   C3043.2,2475.4,3039.1,2475.9,3035.1,2476.3z"/><polygon class="st3" points="3025.6,2624 3025.6,2624 3025.6,2624  "/><polygon class="st3" points="3027.4,2690.2 3027.4,2690.2 3027.4,2690.2  "/><path class="st3" d="M2672.8,2752c0,59.1,24,112.6,62.7,151.4c38.8,38.7,92.3,62.7,151.4,62.7c59.1,0,112.6-24,151.4-62.7   c38.8-38.8,62.7-92.3,62.7-151.4c0-59.1-24-112.6-62.7-151.4c-38.8-38.7-92.3-62.7-151.4-62.7c-12.3,0-24.4,1.1-36.1,3l43.6,105.6   c54.9,3.8,98.3,49.6,98.3,105.5c0,58.4-47.4,105.7-105.8,105.7c-58.4,0-105.7-47.3-105.7-105.7c0-25,8.7-48,23.2-66.1l-43.2-107.2   c-9.1,6.6-17.7,13.9-25.6,21.9C2696.8,2639.4,2672.8,2692.9,2672.8,2752z M3033.6,2700.3c-3.1-6.4-6.2-10-6.2-10.1l0,0   c-1.3-1.5-1.2-3.8,0.3-5.1c1.5-1.3,3.8-1.2,5.1,0.3c0.2,0.2,3.7,4.2,7.2,11.4c3.5,7.2,7,17.5,7,30.3c0,2-0.1,4-0.3,6.1   c-0.2,2-1.9,3.5-3.9,3.3c-2-0.2-3.5-1.9-3.3-3.9c0.2-1.9,0.2-3.7,0.2-5.5C3039.7,2715.8,3036.7,2706.7,3033.6,2700.3z M3024.3,2619   c1-1.7,3.2-2.3,5-1.3c0.3,0.2,6.3,3.8,13.4,12.4c7.1,8.7,15.2,22.4,19.5,42.6c0.4,2-0.8,3.9-2.8,4.3c-2,0.4-3.9-0.8-4.3-2.8   c-4.1-18.7-11.4-31.2-17.8-39.1c-6.4-7.9-11.7-11.1-11.8-11.2l0,0C3023.9,2623,3023.3,2620.8,3024.3,2619z"/><path class="st4" d="M2850.8,2541c11.7-2,23.8-3,36.1-3c59.1,0,112.6,24,151.4,62.7c38.8,38.8,62.7,92.3,62.7,151.4   c0,59.1-24,112.6-62.7,151.4c-38.8,38.7-92.3,62.7-151.4,62.7c-59.1,0-112.6-24-151.4-62.7c-38.7-38.8-62.7-92.3-62.7-151.4   c0-59.1,24-112.6,62.7-151.4c7.9-7.9,16.5-15.2,25.6-21.9l-2.8-6.9c-56.2,40.1-92.8,105.9-92.8,180.2   c0,122.3,99.1,221.3,221.4,221.4c122.3,0,221.4-99.1,221.4-221.4c0-122.3-99.1-221.3-221.4-221.4c-13.3,0-26.3,1.2-39,3.4   L2850.8,2541z"/><path d="M2817.3,2821.7c17.8,17.8,42.4,28.8,69.6,28.8c27.2,0,51.8-11,69.6-28.8c17.8-17.8,28.8-42.4,28.9-69.6   c0-27.2-11-51.8-28.9-69.6c-15.5-15.5-36.1-25.8-59.1-28.3l31.8,76.9c5.3,10.7,7.7,20.9,7.7,30.3c0,14.4-5.6,26.6-14.4,35.1   c-8.8,8.5-20.6,13.4-33,13.4c-9,0-18.4-2.6-26.9-8.3c-8.5-5.7-16.3-14.3-22.2-26.3l-0.1-0.3l-32.8-81.2   c-12,16.3-19.1,36.4-19.1,58.2C2788.4,2779.2,2799.5,2803.8,2817.3,2821.7z"/><path d="M2886.9,2857.8c58.4,0,105.8-47.3,105.8-105.7c0-55.9-43.4-101.6-98.3-105.5l3.1,7.5c23,2.5,43.6,12.8,59.1,28.3   c17.8,17.8,28.8,42.4,28.9,69.6c0,27.2-11,51.8-28.9,69.6c-17.8,17.8-42.4,28.8-69.6,28.8c-27.2,0-51.8-11-69.6-28.8   c-17.8-17.8-28.8-42.4-28.8-69.6c0-21.8,7.1-41.9,19.1-58.2l-3.1-7.8c-14.5,18.1-23.2,41.1-23.2,66.1   C2781.2,2810.4,2828.5,2857.8,2886.9,2857.8z"/><path class="st3" d="M2758.2,2335.9l-8.1-19.6c-27.4,9.1-52.1,19.6-74.5,31.2l10.4,25.8C2707.4,2358.4,2731.5,2345.7,2758.2,2335.9   z"/><path class="st3" d="M2847,2772.1c5.5,10.9,12.4,18.5,19.7,23.4c7.4,4.9,15.3,7.1,22.9,7.1c10.5,0,20.5-4.2,28-11.4   c7.4-7.2,12.2-17.5,12.2-29.9c0-8.2-2.1-17.3-7-27.2l-0.1-0.2l-114.3-276.7c-3.6,0.9-7.2,1.8-10.7,2.9c-24.8,7.6-46.1,20-62.5,34.9   L2847,2772.1z"/><path class="st4" d="M2686,2373.3l-10.4-25.8c-2.2,1.1-4.3,2.3-6.4,3.4l10.8,26.7C2682,2376.1,2684,2374.7,2686,2373.3z"/><path class="st4" d="M2761.1,2578.8l43.2,107.2l3.1,7.8l32.8,81.2l0.1,0.3c6,12,13.7,20.6,22.2,26.3c8.5,5.7,17.9,8.3,26.9,8.3   c12.4,0,24.3-4.9,33-13.4c8.8-8.5,14.4-20.8,14.4-35.1c0-9.4-2.4-19.6-7.7-30.3l-31.8-76.9l-3.1-7.5l-43.6-105.6l-2.8-6.9   l-32.4-78.5c-2.4,0.5-4.8,1-7.2,1.6l114.3,276.7l0.1,0.2c4.9,9.9,7,19,7,27.2c0,12.4-4.8,22.7-12.2,29.9   c-7.4,7.2-17.5,11.4-28,11.4c-7.6,0-15.5-2.2-22.9-7.1c-7.4-4.9-14.2-12.5-19.7-23.4l-111.8-277.2c-2,1.8-3.8,3.6-5.6,5.5   l28.8,71.5L2761.1,2578.8z"/><path class="st4" d="M2750.1,2316.3l8.1,19.6c2.3-0.8,4.5-1.7,6.8-2.5l-8-19.4C2754.7,2314.8,2752.4,2315.5,2750.1,2316.3z"/><path class="st3" d="M2017.1,2093.9c1,0,1.9-0.3,3-1c1.1-0.7,2.2-1.9,3.4-3.6c2.3-3.3,4.5-8.6,6.2-15c2.8-10.6,4.5-24.3,5-38.5   c-48.7,5.3-129.5,12.5-214.7,12.5c-49.5,0-100.5-2.4-147.7-9c-47.2-6.6-90.5-17.3-124.6-34.1c-24.7-12.1-43.3-28.1-57.1-46.5   h-169.1l-0.1,0c0,0-1.4,0-3.9-0.1c-2.6-0.1-6.3-0.1-10.9-0.2c-9.3-0.2-22.4-0.5-37.3-0.8c-29.8-0.5-67.2-1.1-98-1.1h-1.4   c-19.3,0-35.9,0.2-46.1,0.8c-3.4,0.2-6.2,0.4-7.9,0.7c-0.8,0.1-1.5,0.3-1.6,0.3c-8.1,4.5-13.9,10.9-17.9,18.6   c-4,7.7-5.9,16.7-5.9,26.3c0,19.9,8.6,42.2,24.7,59.3c16.1,17.1,39.7,29.2,70,29.2c1.9,0,3.8,0,5.7-0.1c1.6-0.1,3.1,0.9,3.6,2.4   l0.8,2.3h812.8c5.4-1.5,8.4-2.3,8.4-2.3C2016.5,2093.9,2016.8,2093.9,2017.1,2093.9z"/><path class="st4" d="M2017.4,2101.2c0.1,0,0.2-0.1,0.3-0.1c2.3-0.1,4.5-0.9,6.4-2.2c3.6-2.4,6.2-6.3,8.4-11.1   c3.3-7.2,5.6-16.6,7.2-27.2c1.2-8,1.9-16.8,2.2-25.6c-2.3,0.3-4.8,0.5-7.3,0.8c-0.5,14.3-2.2,28-5,38.5c-1.7,6.4-3.9,11.7-6.2,15   c-1.1,1.7-2.3,2.9-3.4,3.6c-1.1,0.7-2,1-3,1c-0.3,0-0.6,0-0.9,0.1c0,0-3,0.8-8.4,2.3h0.5c1.8,0,3.3,1.3,3.6,3.1   c0.2,1.8-0.9,3.5-2.6,4c2.8-0.8,5-1.4,6.5-1.8C2016.5,2101.4,2017.1,2101.3,2017.4,2101.2z"/><path class="st4" d="M1189.5,2097.8c0.7-1,1.8-1.5,3-1.5h2.6l-0.8-2.3c-0.5-1.5-2-2.5-3.6-2.4c-1.9,0.1-3.8,0.1-5.7,0.1   c-30.3,0-53.8-12.1-70-29.2c-16.1-17.1-24.7-39.3-24.7-59.3c0-9.6,2-18.6,5.9-26.3c3.9-7.7,9.8-14.1,17.9-18.6   c0.2-0.1,0.8-0.2,1.6-0.3c1.7-0.3,4.4-0.5,7.9-0.7c10.2-0.6,26.8-0.8,46.1-0.8h-65.9c-6,4.7-10.7,10.5-14,17.1   c-4.6,8.9-6.7,19.1-6.7,29.6c0,22,9.3,45.8,26.7,64.2c17.4,18.5,43,31.5,75.2,31.5c1.1,0,2.2-0.1,3.3-0.1l0.8,2.2   C1188.7,2099.9,1188.8,2098.7,1189.5,2097.8z"/><path class="st4" d="M1306.5,1958.3c4.7,0.1,8.4,0.2,10.9,0.2c2.6,0.1,3.9,0.1,3.9,0.1l0.1,0h169.1c-1.8-2.4-3.5-4.8-5.1-7.3   h-113.1v1.4c0,1-0.4,1.9-1.1,2.6c-0.7,0.7-1.6,1.1-2.6,1.1h-197.6c30.8,0,68.2,0.5,98,1.1   C1284.1,1957.8,1297.2,1958.1,1306.5,1958.3z"/><path d="M1983.5,2103.5l-786,0l11.7,33.9h684.3C1928.9,2121.8,1961,2110.6,1983.5,2103.5z"/><path d="M1203.7,2138.9c0.7-1,1.8-1.5,3-1.5h2.6l-11.7-33.9l786,0c-22.5,7.1-54.7,18.3-90,33.9h0.8c1.7,0,3.2,1.2,3.6,2.9   c0.4,1.7-0.5,3.4-2.1,4.1c50.9-22.5,95.4-35.9,113.5-41c0,0,0,0,0,0c1.7-0.5,2.9-2.2,2.6-4c-0.2-1.8-1.8-3.1-3.6-3.1h-0.5h-812.8   h-2.6c-1.2,0-2.3,0.6-3,1.5c-0.7,1-0.9,2.2-0.5,3.3l14.2,41.2C1202.9,2141.1,1203,2139.9,1203.7,2138.9z"/><path class="st3" d="M1211.8,2144.6l22,63.8c69.2-27.2,149.4-43.4,242-43.4c63.9,0,116.2,7.7,158.5,21.5   c40.9,13.3,72.5,32.3,96.5,55.4c41.4-41.6,96.2-73.8,146.8-97.3H1211.8z"/><path class="st4" d="M1233.8,2208.5l-22-63.8h665.8c-50.6,23.6-105.4,55.7-146.8,97.3c0.9,0.8,1.7,1.7,2.6,2.5   c0.9,0.9,1.7,1.7,2.5,2.6c44.6-44.8,105.8-78.9,159.9-102.8c1.6-0.7,2.4-2.4,2.1-4.1c-0.4-1.7-1.8-2.9-3.6-2.9h-0.8h-684.3h-2.6   c-1.2,0-2.3,0.6-3,1.5c-0.7,1-0.9,2.2-0.5,3.3l23.8,69c1.1-0.4,2.1-0.9,3.2-1.3C1231.4,2209.4,1232.6,2208.9,1233.8,2208.5z"/><path class="st5" d="M1678.2,2761.8c3.9-6.9,9.4-16.8,15.8-29.4c5.7-11,12.1-23.9,18.9-38.4c1.9-4.1,3.9-8.4,5.9-12.8   c6.9-15.4,14.1-32.2,21.1-50h0c0,0,0,0,0,0l0,0c25.3-65,48-143.9,48-217.5c0-31-4-61.1-13.5-88.9c-9.5-27.8-24.4-53.2-46.2-75   c-23.4-23.4-54.8-42.6-96.2-56.1c-41.4-13.5-92.9-21.1-156.3-21.1c-40.8,0-79.2,3.2-115.2,9.1c-46.3,7.6-88.7,19.6-127.6,35.2   c-84.2,33.6-151.8,83.7-206.1,140.2c-54.2,56.6-95,119.7-125.4,179.4c-57.3,112.6-77.6,213-81.5,234.4h853.1   c0.2-0.3,0.3-0.6,0.5-0.9C1674.7,2767.8,1676.3,2765.2,1678.2,2761.8z M1316.5,2506.7h-159.6c-2,0-3.6-1.6-3.6-3.6   c0-2,1.6-3.6,3.6-3.6h159.6c2,0,3.6,1.6,3.6,3.6C1320.1,2505.1,1318.5,2506.7,1316.5,2506.7z M1089.7,2569.6c-2,0-3.6-1.6-3.6-3.6   s1.6-3.6,3.6-3.6h159.6c2,0,3.6,1.6,3.6,3.6s-1.6,3.6-3.6,3.6H1089.7z M1167.4,2610.3H1327c2,0,3.6,1.6,3.6,3.6   c0,2-1.6,3.6-3.6,3.6h-159.6c-2,0-3.6-1.6-3.6-3.6C1163.7,2611.9,1165.4,2610.3,1167.4,2610.3z M1259.8,2680.4h-159.6   c-2,0-3.6-1.6-3.6-3.6c0-2,1.6-3.6,3.6-3.6h159.6c2,0,3.6,1.6,3.6,3.6C1263.4,2678.8,1261.8,2680.4,1259.8,2680.4z"/><path class="st4" d="M946.8,2777.8h92h7.3h110h7.5h190.1h7.5h110h7.3h92h7.3h97.3c-1.3,0-2.5-0.7-3.2-1.8c-0.6-1.1-0.6-2.5,0.1-3.7   c0,0,0.1-0.2,0.4-0.7c0.2-0.3,0.4-0.7,0.6-1.1H820c3.9-21.3,24.1-121.8,81.5-234.4c30.4-59.7,71.2-122.8,125.4-179.4   c54.2-56.6,121.9-106.6,206.1-140.2c38.9-15.6,81.3-27.6,127.6-35.2c36-5.9,74.4-9.1,115.2-9.1c63.4,0,114.8,7.7,156.3,21.1   c41.4,13.5,72.8,32.8,96.2,56.1c21.9,21.8,36.8,47.3,46.2,75c9.5,27.8,13.5,57.9,13.5,88.9c0,73.7-22.7,152.6-48,217.5l0,0   c0.6-1.4,1.9-2.3,3.5-2.3c1.7,0,3.4,0.1,5.1,0.1c24.8-64.5,46.7-142,46.7-215.4c0-31.7-4.1-62.6-13.9-91.2   c-9.4-27.6-24.1-53.1-45.4-75.2c-0.8-0.9-1.7-1.8-2.5-2.6c-0.8-0.8-1.7-1.7-2.6-2.5c-24-23.1-55.6-42.1-96.5-55.4   c-42.3-13.8-94.6-21.5-158.5-21.5c-92.6,0-172.7,16.2-242,43.4c-1.2,0.5-2.4,0.9-3.6,1.4c-1.1,0.4-2.1,0.9-3.2,1.3   c-57.5,23.4-107.4,54.4-150.5,89.8c-2,1.6-3.9,3.2-5.8,4.8c-19.5,16.4-37.6,33.7-54.3,51.6c-5.7,6.1-11.3,12.3-16.8,18.6   c-1.8,2.1-3.6,4.2-5.4,6.3c-69.3,81.8-113.6,172.6-141.1,246.1c-0.5,1.3-1,2.6-1.5,3.9c-5.9,15.9-10.9,30.9-15.3,44.8   c-18.1,57.8-24.2,96.4-24.2,96.6c-0.2,1.1,0.1,2.1,0.8,2.9c0.7,0.8,1.7,1.3,2.8,1.3h123.8H946.8z"/><path class="st4" d="M1718.8,2681.2c6.9-15.4,14.1-32.2,21.1-50c0,0,0,0,0,0h0C1732.9,2649,1725.8,2665.8,1718.8,2681.2z"/><path class="st3" d="M2499.4,1555.8c-4.8-13.7-7.9-23.1-9.6-27.9l-144.9,66.5l17.8,53.5l82.8-33.3c1-0.4,2.2-0.3,3.1,0.2   c1,0.5,1.6,1.5,1.8,2.5l104.5,584.1c0.2,1.2-0.2,2.4-1,3.2c0,0-0.6,0.6-1.6,1.7c-1.1,1.1-2.7,2.7-4.8,4.9   c-4.2,4.3-10.2,10.5-17.6,18.5c-14.9,15.9-35.6,38.7-58.5,66.1c-45.9,54.7-101,127.9-137.5,201c-24.4,48.8-40.5,97.5-40.5,140.6   c0,4.5,0.2,8.9,0.5,13.2c0.1,1-0.3,2.1-1,2.8c-0.7,0.7-1.7,1.2-2.8,1.1c-322-12.1-473.5-16.6-544.3-18.2   c-6.7,17.1-13.6,33.2-20.3,48c-2,4.4-4,8.7-5.9,12.9c-16.9,36.2-31.7,62.6-38,73.5h787.1c-1.8-10.2-6-37.3-6-74   c0-44,6-101.8,29.3-160.6c23.3-58.8,64-118.7,133.2-166.6c45.2-31.3,102.6-57.4,175.2-74.9c-120.1-264.4-204-476-254.3-610   c-5.8-15.5-11.2-30-16.1-43.4C2516.4,1604.3,2506.3,1575.6,2499.4,1555.8C2499.4,1555.9,2499.4,1555.8,2499.4,1555.8z"/><path class="st4" d="M2342.5,1610.1l10.1,30.4l2.3,6.9l2.1,6.4c0.3,0.9,1,1.7,1.9,2.1c0.9,0.4,2,0.4,2.9,0.1l8.8-3.6l-0.4-4.9l0,0   c-0.2-2,1.3-3.8,3.3-3.9c2-0.2,3.8,1.3,3.9,3.3l0.2,2.7l66.3-26.7l103.4,577.8c-9.5,9.6-69.6,70.8-129.8,150.7   c-32.8,43.5-65.6,92.6-90.3,141.9c-24.7,49.3-41.3,99-41.3,143.8c0,3.3,0.1,6.5,0.3,9.7c-6.6-0.2-13.2-0.5-19.6-0.7   c-2.7-0.1-5.4-0.2-8.1-0.3c-124-4.6-221.2-8.1-297.6-10.6c-2.6-0.1-5.1-0.2-7.6-0.3c-101.8-3.4-165.3-5.2-204.8-6.1   c-1.8,0-3.5-0.1-5.1-0.1c-1.5,0-2.9,0.9-3.5,2.3c0,0,0,0,0,0c0,0,0,0,0,0c-7,17.9-14.1,34.7-21.1,50c-2,4.4-4,8.7-5.9,12.8   c-6.8,14.5-13.2,27.4-18.9,38.4c-6.5,12.6-12,22.5-15.8,29.4c-1.9,3.4-3.5,6.1-4.5,7.8c-0.2,0.4-0.4,0.6-0.5,0.9   c-0.3,0.4-0.5,0.8-0.6,1.1c-0.3,0.5-0.4,0.7-0.4,0.7c-0.7,1.1-0.7,2.5-0.1,3.7c0.6,1.1,1.9,1.8,3.2,1.8H2473c1.1,0,2.1-0.5,2.8-1.4   c0.7-0.9,1-2,0.7-3.1c0,0,0-0.1-0.1-0.3c-0.7-3.4-6.6-33.2-6.6-76.5c0-57.8,10.5-139.6,57.8-215.5c23.6-37.9,56.4-74.4,101.7-105.8   c12.3-8.5,25.7-16.7,39.9-24.4c2.1-1.2,4.3-2.3,6.4-3.4c22.4-11.6,47.1-22.1,74.5-31.2c2.3-0.8,4.6-1.5,6.9-2.3   c15.6-5,31.9-9.5,49.2-13.6c1.1-0.2,1.9-1,2.4-1.9s0.5-2.1,0-3.1c-38-83.6-72.4-162-103.3-234.3c-1.6-3.8-3.2-7.5-4.8-11.3   c-30.2-71-57-136-80.4-194.4c-1.2-3-2.4-6.1-3.6-9.1c-24-60.1-44.3-112.7-61.1-157.3c-2.5-0.8-5-1.7-7.4-2.6   c-1-0.4-1.7-1.1-2.1-2.1c-5.8-15.5-11.2-30-16.1-43.4c4.9,13.4,10.3,27.9,16.1,43.4c50.3,134,134.2,345.6,254.3,610   c-72.5,17.5-129.9,43.6-175.2,74.9c-69.2,47.9-109.9,107.8-133.2,166.6c-23.3,58.8-29.3,116.6-29.3,160.6c0,36.7,4.2,63.8,6,74   h-787.1c6.3-10.9,21.1-37.4,38-73.5c2-4.2,3.9-8.5,5.9-12.9c6.7-14.8,13.6-30.9,20.3-48c70.8,1.6,222.3,6.1,544.3,18.2   c1,0,2-0.4,2.8-1.1c0.7-0.7,1.1-1.8,1-2.8c-0.4-4.3-0.5-8.7-0.5-13.2c0-43.1,16.1-91.8,40.5-140.6c36.6-73.1,91.6-146.3,137.5-201   c22.9-27.4,43.6-50.2,58.5-66.1c7.5-8,13.5-14.2,17.6-18.5c2.1-2.1,3.7-3.8,4.8-4.9c1.1-1.1,1.6-1.7,1.6-1.7c0.8-0.8,1.2-2,1-3.2   l-104.5-584.1c-0.2-1.1-0.9-2-1.8-2.5c-1-0.5-2.1-0.6-3.1-0.2l-82.8,33.3l-17.8-53.5l144.9-66.5c1.6,4.8,4.8,14.2,9.6,27.9   c-0.1-0.4-0.2-0.8-0.2-1.1v0v0c0-0.7,0.2-1.4,0.6-2c1.3-2,2.7-3.9,4.1-5.8c-2.5-7.2-4.4-12.9-5.8-17c-0.9-2.7-1.6-4.7-2-6   c-0.4-1.3-0.7-2-0.7-2c-0.3-1-1-1.8-2-2.2c-1-0.4-2-0.4-3,0l-38.7,17.8l-8.6,4l-104.2,47.8c-1.7,0.8-2.5,2.7-1.9,4.4l3.2,9.6   L2342.5,1610.1z"/><path class="st5" d="M2506.9,1555.2c9.3,26.7,24.4,69,45.4,125.1c16.8,6.1,36,9.5,56.6,9.5c14.6,0,29.9-1.7,45.3-5.2   c5-1.2,10-2.6,14.8-4.1l-44.3-192.2c-5,0.8-10,1.7-15.1,2.8C2563.8,1501.6,2526.9,1526.2,2506.9,1555.2z"/><path class="st4" d="M2499.8,1552.6c-0.4,0.6-0.6,1.3-0.6,2v0v0c0,0.4,0.1,0.8,0.2,1.1c0,0,0,0,0,0c6.9,19.7,17,48.4,30.5,85.2   c4.9,13.4,10.3,27.9,16.1,43.4c0.4,1,1.1,1.8,2.1,2.1c2.4,0.9,4.9,1.8,7.4,2.6c16.2,5.2,34.2,7.9,53.3,7.9c15.2,0,31-1.7,46.9-5.4   c6.4-1.5,12.6-3.2,18.6-5.2c1.8-0.6,2.8-2.4,2.4-4.3l-3.7-15.9l-2.1-8.9l-34.5-149.6l-1.8-7.9l-3.8-16.5c-0.4-1.8-2.2-3-4-2.8   c-6.3,0.9-12.6,2-19,3.5c-45,10.4-82.1,33.9-103.9,62.8C2502.5,1548.7,2501.1,1550.7,2499.8,1552.6z M2624.6,1488.3l44.3,192.2   c-4.8,1.5-9.8,2.9-14.8,4.1c-15.4,3.6-30.7,5.2-45.3,5.2c-20.5,0-39.8-3.4-56.6-9.5c-21-56-36-98.3-45.4-125.1   c20.1-29,57-53.6,102.7-64.1C2614.6,1490,2619.6,1489.1,2624.6,1488.3z"/><path d="M2328.7,1732.3c-11.3,7.3-23.2,14.4-34.1,19.7c-5.4,2.6-10.6,4.8-15.2,6.3c-4.6,1.5-8.8,2.3-12,2.4c-2,0-3.6,1.7-3.6,3.7   c0,2,1.7,3.6,3.7,3.6c4.6-0.1,9.7-1.2,15.1-3.1c9.6-3.2,20.4-8.6,31.3-15c32.9-18.9,67-46,67.1-46.1c1-0.8,1.5-2,1.4-3.2l-4.7-51   l-0.2-2.7c-0.2-2-1.9-3.5-3.9-3.3c-2,0.2-3.5,1.9-3.3,3.9l0,0l0.4,4.9l4.3,46.9C2369.6,1703.5,2350.4,1718.3,2328.7,1732.3z"/><path class="st5" d="M972.5,2173.3c-0.4,0.8-0.8,1.6-1.3,2.5c-1.5,2.7-3.7,6.3-6.2,10.5c-5.2,8.5-12.2,19.6-20.2,32   c-15.9,24.8-35.5,54.7-50.9,78c-3.5,5.3-5.1,11.1-5.1,16.8c0,6.5,2.1,12.9,5.9,18.1c3.8,5.2,9.3,9.3,16.2,11.3l0.8,0.2l148.2-138.1   L972.5,2173.3z"/><path class="st4" d="M970.9,2297.4l10.8-10.1l63.6-59.2l23.8-22.1c0.9-0.9,1.3-2.1,1.1-3.4c-0.3-1.2-1.1-2.3-2.3-2.7l-96-34.6   c-1-0.4-2.1-0.3-3,0.2c-0.9,0.5-1.5,1.3-1.8,2.3l0,0c0,0-0.2,0.7-0.7,1.5c-0.8,1.6-2.2,4.1-4.1,7.3c-6.6,11.2-19,30.7-32.9,52   c-13.8,21.4-29.2,44.7-41.7,63.6c-4.3,6.5-6.3,13.7-6.3,20.8c0,8.1,2.6,15.9,7.3,22.4c4.7,6.5,11.6,11.6,20.1,14l2.7,0.8   c1.2,0.4,2.5,0,3.5-0.8l50.1-46.7L970.9,2297.4z M910.8,2342.5c-6.9-2-12.4-6.1-16.2-11.3c-3.8-5.2-5.9-11.6-5.9-18.1   c0-5.7,1.6-11.5,5.1-16.8c15.4-23.3,35-53.2,50.9-78c8-12.4,15-23.6,20.2-32c2.6-4.2,4.7-7.8,6.2-10.5c0.5-0.9,1-1.7,1.3-2.5   l87.3,31.4l-148.2,138.1L910.8,2342.5z"/><path class="st5" d="M2623.3,2443c-34.9,45.8-52.7,98-52.7,144.1c0,6.7,0.4,13.3,1.1,19.7c0.2,1.9,0.9,3.9,1.7,6   c0.5,1.2,1.1,2.4,1.6,3.7l2.9-0.9c56-17.1,102.2-53,128.2-96.9c17-28.6,48.9-53.2,89.3-65.6c17.6-5.4,35.3-8,52-8   c17.5,0,34,2.8,48.7,8.1c32.1,11.6,67.4,17.7,103.7,17.7c32.7,0,66.3-4.9,99.2-15l4-1.2c-0.8-3.5-1.7-7.1-2.7-10.6   c-11.8-38.6-39.1-69.5-76.5-91c-37.4-21.4-84.9-33.2-136.7-33.2c-35,0-71.8,5.4-108.8,16.7C2710,2357.6,2658.1,2397.1,2623.3,2443z   "/><path class="st4" d="M2758.2,2335.9c-26.7,9.8-50.8,22.5-72.2,37.4c-2.1,1.4-4.1,2.9-6.1,4.3c-24.6,18-45.5,38.7-62.5,61   c-35.8,47-54.1,100.6-54.1,148.5c0,7,0.4,13.8,1.2,20.5c0.3,2.9,1.3,5.6,2.3,8c1,2.4,2.1,4.6,3,6.7c0.7,1.7,2.6,2.6,4.4,2.1   l5.9-1.8c5.6-1.7,11.1-3.7,16.5-5.8c3.4-1.3,6.7-2.7,10-4.1c45.6-19.8,83-51.9,105.7-90.3c4.5-7.7,10.3-15.1,17.1-22   c1.8-1.8,3.7-3.7,5.6-5.5c16.3-14.9,37.7-27.3,62.5-34.9c3.6-1.1,7.2-2.1,10.7-2.9c2.4-0.6,4.8-1.1,7.2-1.6   c10.9-2.1,21.6-3.2,31.9-3.2c16.7,0,32.4,2.7,46.2,7.7c32.9,11.9,69,18.1,106.2,18.1c11.7,0,23.4-0.6,35.3-1.9   c4.1-0.4,8.1-0.9,12.2-1.5c18-2.5,36-6.4,53.9-11.9l7.2-2.2c1.8-0.5,2.9-2.4,2.5-4.2c-1-4.8-2.2-9.7-3.6-14.5   c-12.4-40.6-41.2-73-79.9-95.1c-38.7-22.1-87.4-34.1-140.3-34.1c-35.7,0-73.3,5.5-111,17c-3.7,1.1-7.4,2.4-11,3.6   C2762.8,2334.2,2760.5,2335.1,2758.2,2335.9z M3023.7,2353.2c37.4,21.4,64.7,52.4,76.5,91c1.1,3.5,1.9,7,2.7,10.6l-4,1.2   c-32.9,10.1-66.5,15-99.2,15c-36.3,0-71.6-6-103.7-17.7c-14.7-5.3-31.2-8.1-48.7-8.1c-16.7,0-34.4,2.6-52,8   c-40.4,12.4-72.3,37-89.3,65.6c-25.9,43.8-72.2,79.7-128.2,96.9l-2.9,0.9c-0.6-1.3-1.1-2.5-1.6-3.7c-0.9-2.1-1.5-4.1-1.7-6   c-0.8-6.4-1.1-13-1.1-19.7c0-46.1,17.8-98.3,52.7-144.1c34.9-45.8,86.8-85.3,155-106.2c37-11.3,73.9-16.7,108.8-16.7   C2938.8,2320,2986.3,2331.8,3023.7,2353.2z"/><path d="M1316.5,2499.5h-159.6c-2,0-3.6,1.6-3.6,3.6c0,2,1.6,3.6,3.6,3.6h159.6c2,0,3.6-1.6,3.6-3.6   C1320.1,2501.1,1318.5,2499.5,1316.5,2499.5z"/><path d="M1252.9,2565.9c0-2-1.6-3.6-3.6-3.6h-159.6c-2,0-3.6,1.6-3.6,3.6s1.6,3.6,3.6,3.6h159.6   C1251.3,2569.6,1252.9,2568,1252.9,2565.9z"/><path class="st4" d="M1167.4,2617.6H1327c2,0,3.6-1.6,3.6-3.6c0-2-1.6-3.6-3.6-3.6h-159.6c-2,0-3.6,1.6-3.6,3.6   C1163.7,2616,1165.4,2617.6,1167.4,2617.6z"/><path d="M1259.8,2673.2h-159.6c-2,0-3.6,1.6-3.6,3.6c0,2,1.6,3.6,3.6,3.6h159.6c2,0,3.6-1.6,3.6-3.6   C1263.4,2674.8,1261.8,2673.2,1259.8,2673.2z"/><path d="M2947.9,3066.4h-122h-914.8h-591.5h-122H809.2H588.5c-2,0-3.6,1.6-3.6,3.6s1.6,3.6,3.6,3.6H933h2116.4h688.1   c2,0,3.6-1.6,3.6-3.6s-1.6-3.6-3.6-3.6h-0.5h-783.6H2947.9z"/><path class="st3" d="M1463,1838.6c0,31.1,4.9,62.8,18.3,90.7c13.4,28,35.2,52.4,69.6,69.3c33.1,16.3,75.7,26.9,122.4,33.4   c46.7,6.5,97.4,8.9,146.7,8.9c127.4,0,245.2-16,259.4-18c0.9-0.1,1.4-0.2,1.4-0.2c1.2-0.2,2.5,0.3,3.3,1.3c0.8,1,1.1,2.3,0.7,3.5   c0,0-0.3,0.8-0.8,2.4c-0.5,1.6-1.2,3.8-2.2,6.8c-1.9,5.9-4.5,14.6-7.7,25.3c-6.4,21.5-14.9,51.7-23.5,85.9   c-17.1,68.4-34.1,153.2-34.1,218.4c0,16.9,1.1,32.5,3.7,46c2.5,13.1,6.3,24.3,11.5,33.1c27.9,13.4,49.8,17.9,66.6,17.9   c18.2,0,30.5-5.2,38.3-10.4c7.9-5.2,11.3-10.5,11.3-10.5l0,0l0.1-0.1c0,0,0.3-0.5,1-1.5c0.7-1,1.7-2.5,2.9-4.4   c2.6-3.9,6.3-9.5,10.9-16.8c9.2-14.5,21.9-35.3,36.1-60.6c28.3-50.5,62.3-118.6,84.9-189.2c15.1-47.1,25.1-95.2,25.1-139.8   c0-45.7-10.5-87.6-36.5-121.3c-31.2-40.4-76.1-75.9-126.2-106.3c-50.1-30.4-105.5-55.8-157.6-76.3c-47.4-18.6-92-33.1-127.6-43.6   c-0.7,7.2-1.2,11.2-1.2,11.2c-0.2,1.4-1.1,2.6-2.5,3.1c-0.2,0-117.7,37.3-238.8,37.3c-32.6,0-65.5-2.7-96.5-9.6   c-12.9-2.9-25.5-6.5-37.6-11c-1.7,5.3-3.5,11.2-5.3,17.7C1471,1760.1,1463,1798.9,1463,1838.6z M1718.9,1804.6   c17-1.9,29.7-6.6,39.2-12.7c9.5-6.1,16-13.5,20.4-21c8.8-14.9,9.4-30,9.4-33.3c0-0.4,0-0.6,0-0.6l0,0l0,0c-0.1-2,1.5-3.7,3.5-3.8   c2-0.1,3.7,1.5,3.8,3.5c0,0,0,0.4,0,1c0,3-0.3,13-4.6,24.8c-4.3,11.8-12.6,25.5-28.5,35.6c-10.6,6.7-24.4,11.8-42.3,13.8   c-2,0.2-3.8-1.2-4-3.2C1715.5,1806.6,1716.9,1804.8,1718.9,1804.6z"/><path class="st4" d="M1455.8,1838.6c0,31.8,5,64.6,19,93.9c3.1,6.5,6.7,12.8,10.7,18.9c1.6,2.5,3.3,4.9,5.1,7.3   c13.8,18.4,32.4,34.4,57.1,46.5c34.1,16.8,77.4,27.5,124.6,34.1c47.2,6.6,98.2,9,147.7,9c85.2,0,166-7.1,214.7-12.5   c2.5-0.3,5-0.5,7.3-0.8c15.8-1.8,27.6-3.3,34.1-4.2c-4.8,15.1-18.7,59.8-32.5,115.4c-17.1,68.7-34.3,153.8-34.3,220.2   c0,17.2,1.2,33.2,3.8,47.4c2.5,13.3,6.3,24.9,11.8,34.5c0.4,0.6,0.7,1.3,1.1,1.9c0.4,0.6,0.9,1.1,1.5,1.4c1,0.5,2,1,3,1.4   c27.7,13,50.1,17.7,67.7,17.7c15.7,0,27.6-3.7,36.4-8.2c2.4-1.2,4.5-2.5,6.4-3.8c0.7-0.5,1.3-0.9,1.9-1.4   c7.2-5.3,10.5-10.2,11-10.9l0,0c0.1-0.1,40.5-58.6,81-139.9c20.2-40.6,40.5-86.9,55.7-134.5c15.2-47.5,25.4-96.3,25.4-142   c0-46.8-10.7-90.5-38-125.7c-33.1-42.8-80.5-79.6-133.1-111c-78.9-47-169.3-81.7-240-104.7c-15.5-5-30.1-9.5-43.3-13.4   c-0.3,2.7-0.5,5.2-0.7,7.4c35.6,10.5,80.3,25,127.6,43.6c52.1,20.4,107.5,45.8,157.6,76.3c50.1,30.4,95,65.9,126.2,106.3   c26,33.6,36.5,75.5,36.5,121.3c0,44.6-10,92.7-25.1,139.8c-22.6,70.6-56.5,138.8-84.9,189.2c-14.2,25.2-26.9,46.1-36.1,60.6   c-4.6,7.2-8.3,12.9-10.9,16.8c-1.3,1.9-2.3,3.4-2.9,4.4c-0.7,1-1,1.5-1,1.5l-0.1,0.1l0,0c0,0-3.4,5.3-11.3,10.5   c-7.9,5.2-20.1,10.4-38.3,10.4c-16.8,0-38.7-4.5-66.6-17.9c-5.2-8.8-9-20-11.5-33.1c-2.5-13.6-3.7-29.1-3.7-46   c0-65.2,17-150,34.1-218.4c8.5-34.2,17.1-64.3,23.5-85.9c3.2-10.8,5.9-19.4,7.7-25.3c0.9-3,1.7-5.3,2.2-6.8   c0.5-1.6,0.8-2.3,0.8-2.4c0.4-1.2,0.1-2.5-0.7-3.5c-0.8-1-2.1-1.4-3.3-1.3c0,0-0.5,0.1-1.4,0.2c-14.1,2-131.9,18-259.4,18   c-49.3,0-100-2.4-146.7-8.9c-46.7-6.5-89.3-17.1-122.4-33.4c-34.4-16.9-56.2-41.3-69.6-69.3c-13.4-28-18.3-59.6-18.3-90.7   c0-39.7,8-78.5,15.9-107.3c1.8-6.4,3.6-12.3,5.3-17.7c-2.3-0.8-4.6-1.7-6.8-2.6c-1.8,5.5-3.6,11.6-5.4,18.3   C1463.9,1758.6,1455.8,1797.9,1455.8,1838.6z"/><path class="st5" d="M1793.1,1520.1c-26.5-29-46.3-61.1-61-90.9c-29.2-59.7-37.8-110.6-37.8-110.8l0,0c-0.3-2,1-3.8,3-4.2   c1.2-0.2,2.4,0.2,3.2,1l93.1-91.5c-0.8-0.8-1.2-1.9-1-3.1c0.3-2,2.1-3.4,4.1-3.1c5.4,0.8,10.6,2.9,15.6,6.1   c5,3.2,9.9,7.4,14.6,12.3c9.5,10,18.5,23.2,27.2,38.2c1.5,2.6,3,5.3,4.5,8c-3.9-29-9.4-54.8-16.9-75.2   c-3.9-10.5-8.2-19.5-13.1-26.9c-3.5-3.2-9-6.9-15.7-10.6c-6.9-3.8-15.1-7.5-24-10.8c-17.7-6.6-38-11.4-55.6-11.4   c-6.8,0-13.1,0.7-18.7,2.2c-5.4,1.5-10.2,3.8-14,6.9c-1.4,2-6.6,9.8-14.4,19.7c-9,11.6-21.4,26.1-35,38.1   c-9.1,8-18.7,14.8-28.5,18.9c-2,0.8-4,1.5-6,2c-1.9,2.5-3.9,5-5.9,7.5c-45.3,58.1-99.6,137-135.7,219.5c-24.1,55-40,111.7-40,164.9   c0,19.7,2.2,38.9,7,57.4c23.7,15.8,51.5,26.4,81.3,33.1c30.3,6.7,62.7,9.4,94.9,9.4c109.9,0,217.7-31.2,234.4-36.3   c0.1-0.9,0.2-2.1,0.4-3.5c0.4-3.8,1-9.5,1.6-16.6c1.3-14.3,3.1-34.8,4.9-59.5c0.8-10.9,1.6-22.6,2.3-34.9   C1835.1,1560.4,1812.3,1541.1,1793.1,1520.1z"/><path class="st4" d="M1435.4,1687.6c0.2,0.9,0.7,1.6,1.5,2.1c12.6,8.5,26.2,15.5,40.6,21.3c2.2,0.9,4.5,1.7,6.8,2.6   c12.1,4.5,24.7,8.1,37.6,11c31,6.9,63.9,9.6,96.5,9.6c121.2,0,238.7-37.2,238.8-37.3c1.4-0.4,2.4-1.6,2.5-3.1c0,0,0.4-4,1.2-11.2   c0.2-2.2,0.5-4.6,0.7-7.4c1.9-19.7,4.9-53.6,7.4-95.1c-2.4-1.3-4.7-2.6-7-4c-0.8,12.3-1.5,24-2.3,34.9c-1.8,24.6-3.6,45.1-4.9,59.5   c-0.7,7.2-1.2,12.8-1.6,16.6c-0.1,1.4-0.3,2.6-0.4,3.5c-16.7,5.1-124.5,36.3-234.4,36.3c-32.2,0-64.6-2.7-94.9-9.4   c-29.8-6.6-57.6-17.3-81.3-33.1c-4.8-18.5-6.9-37.7-7-57.4c0-53.2,16-109.8,40-164.9c36.1-82.6,90.4-161.4,135.7-219.5   c2-2.5,3.9-5,5.9-7.5c-3.5,1-7,1.6-10.5,1.6c-15.5,19.8-32.1,42.1-48.6,66.2c-32.4,47-64.8,100.7-89.1,156.3   c-24.3,55.6-40.6,113.2-40.6,167.8c0,7.3,0.3,14.5,0.9,21.6c0.3,3.2,0.7,6.4,1,9.6C1431,1668.2,1432.8,1678,1435.4,1687.6z"/><path class="st4" d="M1833.1,1180.9c-1.4,0.7-3.1,0.5-4.2-0.5c-0.1-0.1-0.2-0.2-0.3-0.3c4.9,7.4,9.3,16.4,13.1,26.9   c7.5,20.4,13,46.3,16.9,75.2c3.2,5.8,6.4,11.8,9.5,17.9c-2-18.5-4.5-36.1-7.8-52.3c-5.2-25.6-12-47.6-21.2-64.3   c-1.4-2.5-2.9-5-4.4-7.2c0.1,0.3,0.1,0.5,0.2,0.8C1835.2,1178.6,1834.5,1180.2,1833.1,1180.9z"/><path class="st3" d="M2258.9,1669.2c4.1,6.1,5.4,11.2,5.9,14.2c0.6,0.2,1.2,0.4,2,0.7c2.6,0.8,6.4,2,10.8,3.1   c8.9,2.3,20.4,4.5,31.1,4.5c6.4,0,12.5-0.8,17.3-2.8c4.9-2,8.5-4.9,10.7-9.3c1.5-3,2.4-6.8,2.4-11.7c0-2.8-0.3-5.9-0.9-9.4   c-2.3-12.2-8.5-21.4-17.3-28.8c-8.8-7.3-20.1-12.6-32-16.3c-13.4-4.2-27.6-6.3-39.6-7.4l-7.1,46.5   C2250.2,1658.3,2255.5,1664,2258.9,1669.2z"/><path class="st4" d="M2249.3,1606c12,1.1,26.2,3.2,39.6,7.4c11.9,3.7,23.3,9,32,16.3c8.8,7.3,15.1,16.6,17.3,28.8   c0.6,3.5,0.9,6.6,0.9,9.4c0,4.9-0.9,8.7-2.4,11.7c-2.3,4.5-5.9,7.4-10.7,9.3c-4.8,1.9-10.9,2.8-17.3,2.8c-10.6,0-22.2-2.2-31.1-4.5   c-4.4-1.1-8.2-2.3-10.8-3.1c-0.8-0.2-1.4-0.5-2-0.7c-0.5-3-1.8-8.1-5.9-14.2c-3.4-5.1-8.7-10.9-16.7-16.7l-1.2,8.1   c5.7,4.5,9.4,8.8,11.9,12.5c2.3,3.5,3.5,6.4,4.1,8.6c0.8,2.6,0.8,4.2,0.8,4.2l0,0.2c0,1,0.5,2,1.3,2.6c0.3,0.3,0.7,0.5,1.1,0.7   c0.1,0,6.4,2.4,15.6,4.7c9.2,2.3,21.2,4.7,32.9,4.7c4.7,0,9.3-0.4,13.7-1.4c6.5-1.4,12.6-4.2,17.1-9.2c2.2-2.5,4-5.4,5.2-8.9   c1.2-3.4,1.8-7.3,1.8-11.7c0-3.3-0.3-6.9-1.1-10.7c-0.3-1.7-0.7-3.4-1.2-5.1c-0.7-2.4-1.5-4.6-2.5-6.8c-3.7-8.4-9.3-15.5-16.1-21.1   c-2-1.6-4.1-3.2-6.2-4.6c-2.5-1.7-5.2-3.2-7.9-4.6c-12.2-6.4-26.1-10.5-39.3-13c-7.6-1.4-15-2.4-21.8-3L2249.3,1606z"/><path class="st5" d="M1701.5,1317.1l0.1,0.3c0,0.2,0.1,0.5,0.2,0.9c0.2,0.8,0.4,2.1,0.7,3.7c0.7,3.2,1.7,8,3.2,13.9   c3,11.9,7.8,28.7,15.1,48.2c14.5,38.9,38.8,88.5,77.7,131c26,28.4,58.4,53.6,98.9,70.7c62.8,25.6,141.3,44.6,207,57.6   c63.6,12.6,115.2,19.5,128.7,21.3l10.3-67.7c-18.7-7.3-130.7-51.7-217.8-96.1c-31.8-16.2-60.2-32.4-79.7-47   c-11.2-8.4-19.4-16.1-23.9-23.5c-10.6-17.9-22.5-45.4-35.7-74.8c-13.2-29.3-27.6-60.4-42.7-84.9c-10.1-16.4-20.5-29.8-30.8-37.7   c-5.9-4.6-11.6-7.3-17.2-8.2c-0.8-0.1-1.5-0.5-2-1.1l-93.1,91.5C1701,1315.7,1701.4,1316.4,1701.5,1317.1z"/><path class="st4" d="M1858.6,1282.2c-1.5-2.7-3-5.4-4.5-8c-8.7-15-17.8-28.2-27.2-38.2c-4.7-5-9.6-9.2-14.6-12.3   c-5-3.2-10.2-5.3-15.6-6.1c-2-0.3-3.8,1.1-4.1,3.1c-0.2,1.2,0.2,2.3,1,3.1c0.5,0.5,1.2,0.9,2,1.1c5.5,0.8,11.3,3.6,17.2,8.2   c10.3,8,20.7,21.4,30.8,37.7c15.1,24.5,29.5,55.6,42.7,84.9c13.2,29.4,25.2,56.9,35.7,74.8c4.4,7.4,12.7,15.2,23.9,23.5   c19.5,14.6,47.9,30.8,79.7,47c87,44.4,199.1,88.8,217.8,96.1l-10.3,67.7c-13.5-1.7-65.1-8.6-128.7-21.3   c-65.6-13-144.2-32.1-207-57.6c-40.5-17.1-72.9-42.3-98.9-70.7c-38.9-42.6-63.2-92.1-77.7-131c-7.3-19.5-12.1-36.2-15.1-48.2   c-1.5-6-2.5-10.7-3.2-13.9c-0.3-1.6-0.6-2.9-0.7-3.7c-0.1-0.4-0.1-0.7-0.2-0.9l-0.1-0.3c-0.1-0.8-0.5-1.4-1-1.9   c-0.8-0.8-2-1.2-3.2-1c-2,0.3-3.3,2.2-3,4.2l0,0c0,0.2,8.6,51.1,37.8,110.8c14.6,29.9,34.4,61.9,61,90.9c19.2,21,42,40.4,68.8,56.1   c2.3,1.4,4.7,2.7,7,4c8.2,4.5,16.7,8.6,25.6,12.4l0,0c67.8,27.6,153,47.5,221.3,60.6c42.4,8.1,78.2,13.5,99.3,16.5   c2.8,0.4,5.2,0.7,7.5,1c8.3,1.1,12.9,1.7,12.9,1.7c1.9,0.2,3.7-1.1,4-3.1l1.3-8.7l1.2-8.1l7.1-46.5l1.1-7.2l0.5-3.6   c0.3-1.7-0.7-3.3-2.3-3.9c0,0-1.1-0.4-3.3-1.3c-16-6.3-88.3-35-160.2-68.3c-36-16.7-71.8-34.5-100.4-51.2   c-14.3-8.4-26.8-16.4-36.6-23.9c-9.8-7.4-16.7-14.4-20-19.9c-7.8-13.1-16.6-32.2-26.2-53.5c-10.4-23.2-21.8-49.1-33.9-73   C1865,1294,1861.8,1288,1858.6,1282.2z"/><path d="M1794.7,1067c-14.8,0-27.9-2.3-36.6-4.3c-0.6,3.2-1,6.5-0.9,9.5c0,3.5,0.5,6.6,1.5,9.2c1,2.5,2.5,4.4,4.8,5.8   c1.5,0.9,3.5,1.6,6,2c14.6,2,27.2,4.6,36.6,4.5c3.7,0,6.9-0.4,9.5-1.3c2.6-0.9,4.6-2.1,6.4-4.1c1.1-1.3,2.1-2.9,3-5   c1.6-3.8,3-8.8,4.3-14.2c0.6-2.4,1.1-4.9,1.6-7.4C1818.5,1065.6,1806.1,1067,1794.7,1067z"/><path d="M1789.1,1099.5c6.1,0.9,11.8,1.5,17,1.5c5.6,0,10.8-0.7,15.3-3.1c2.2-1.2,4.3-2.7,6-4.7c1.7-2,3.2-4.3,4.3-7.1   c2-5,3.7-11.2,5.2-17.8c0.7-3.1,1.3-6.3,1.9-9.5c-2.6,1.1-5.3,2-7.9,2.8c-0.5,2.5-1,5-1.6,7.4c-1.3,5.4-2.7,10.4-4.3,14.2   c-0.8,2.1-1.9,3.7-3,5c-1.7,1.9-3.7,3.2-6.4,4.1c-2.6,0.9-5.8,1.3-9.5,1.3c-9.4,0-22.1-2.5-36.6-4.5c-2.5-0.3-4.5-1.1-6-2   c-2.3-1.4-3.7-3.3-4.8-5.8c-1-2.5-1.5-5.7-1.5-9.2c0-3,0.4-6.3,0.9-9.5c-2.8-0.7-5.2-1.3-7.1-1.8c-0.7,3.7-1.2,7.5-1.2,11.3   c0,5.5,0.9,10.9,3.8,15.4c1.5,2.3,3.4,4.3,5.9,5.8c2.5,1.5,5.4,2.5,8.8,3c4.5,0.6,8.8,1.3,13,1.9   C1784.1,1098.7,1786.7,1099.1,1789.1,1099.5z"/><path class="st3" d="M2142.6,2519.8c-0.4,0.4-0.8,0.7-1.2,1.1c-4.4,4.3-9,9.4-12.7,15.2c-3.8,5.8-6.7,12.2-7.8,19.2   c-0.3,2,1.1,3.8,3,4.1c2,0.3,3.8-1.1,4.1-3c0.9-5.6,3.4-11.2,6.7-16.3c4.4-6.8,10.3-12.8,15.5-17.5c0.7-0.7,1.5-1.3,2.2-1.9   c1.6-1.3,3-2.5,4.3-3.5c1.1-0.8,2.1-1.6,2.9-2.2c0.9-0.6,1.6-1.1,2.1-1.5c0.2-0.2,0.4-0.3,0.6-0.4l0.1-0.1l0,0   c1.7-1.1,2.2-3.3,1.1-5c-1.1-1.7-3.3-2.2-5-1.1l0,0c-0.1,0.1-4.3,2.7-9.8,7.3C2146.9,2516,2144.8,2517.8,2142.6,2519.8z"/><path class="st3" d="M2181.2,2534.6c-6.3,7.4-12.4,17.4-15.2,30.2c-0.4,2,0.8,3.9,2.8,4.3c2,0.4,3.9-0.8,4.3-2.8   c2.7-12.3,8.9-21.8,15.1-28.7c0.8-0.9,1.7-1.8,2.5-2.7c1-1,2-2,3-2.9c2.3-2.1,4.4-3.8,6.1-5c1.2-0.9,2.2-1.5,2.8-1.9   c0.3-0.2,0.6-0.4,0.7-0.5l0.2-0.1l0,0l0,0c1.7-1,2.4-3.2,1.4-4.9c-1-1.7-3.2-2.4-4.9-1.4h0c-0.2,0.1-6.4,3.6-13.6,10.7   c-0.3,0.3-0.6,0.6-0.9,0.9C2184.1,2531.3,2182.7,2532.9,2181.2,2534.6z"/><path class="st3" d="M2219,2552.3c-4.7,5.6-9.1,13.3-10.5,23.6c-0.3,2,1.1,3.8,3.1,4.1c2,0.3,3.8-1.1,4.1-3.1   c1.3-9.4,5.4-16.2,9.8-21c0.8-0.8,1.5-1.6,2.3-2.3c1.2-1.1,2.3-2,3.4-2.8c1.3-1,2.5-1.8,3.5-2.4c0.9-0.6,1.6-0.9,2.1-1.2   c0.2-0.1,0.4-0.2,0.6-0.3l0.1-0.1l0,0l0,0c1.8-0.8,2.7-2.9,1.9-4.8c-0.8-1.8-2.9-2.7-4.8-1.9l0,0c-0.2,0.1-4.9,2.1-10.2,6.8   c-0.5,0.4-1,0.9-1.5,1.4C2221.6,2549.5,2220.3,2550.8,2219,2552.3z"/><path d="M1079.1,1919.8c-1.4,10-2.7,19.9-3.6,29.4l234.3,0c0.5-9.7,0.8-19.5,0.9-29.4H1079.1z"/><path d="M1317,1949.2h48.2v-29.4h-12.7h-34.5C1317.7,1929.7,1317.4,1939.5,1317,1949.2z"/><path d="M1022.2,1929.5c-5.2,5.2-8.6,12.1-9.5,19.7h55.4c1-9.6,2.2-19.4,3.6-29.4h-26.1C1036.4,1919.8,1028.2,1923.5,1022.2,1929.5   z"/><path d="M1169.7,1956.5h1.4h197.6c1,0,1.9-0.4,2.6-1.1c0.7-0.7,1.1-1.6,1.1-2.6v-1.4v-34.5c-6.2,1.9-12.8,2.9-20,2.9h12.7v29.4   H1317c0,0.5,0,1.1-0.1,1.6c-0.1,2-1.8,3.5-3.8,3.4c-2-0.1-3.5-1.8-3.4-3.8c0-0.4,0-0.8,0.1-1.2l-234.3,0c-0.2,2.4-0.5,4.9-0.7,7.3   h29.1H1169.7z"/><path d="M1317.9,1919.8h34.5C1340.9,1919.8,1329.3,1919.8,1317.9,1919.8C1317.9,1919.8,1317.9,1919.8,1317.9,1919.8z"/><path d="M1068.1,1949.2h-55.4c0.8-7.7,4.3-14.5,9.5-19.7c6-6,14.2-9.7,23.4-9.7h26.1c0.2-1.2,0.4-2.4,0.5-3.7   c-4-0.1-6.2-0.2-6.2-0.2c-0.3,0-0.5,0-0.8-0.1c-0.2-0.1-3.6-0.9-8.4-3.3h-11.3c-22.3,0-40.3,18-40.3,40.3c0,1,0.4,1.9,1.1,2.6   s1.6,1.1,2.6,1.1h58.5C1067.7,1954.1,1067.9,1951.7,1068.1,1949.2z"/><path d="M1310.6,1919.7c-101.6-0.5-196.7-2.6-231-3.4c-0.2,1.2-0.3,2.3-0.5,3.5h231.5C1310.6,1919.8,1310.6,1919.7,1310.6,1919.7z"/><path class="st3" d="M1595.4,1227.1c3.3,1.7,6.8,2.4,10.5,2.4c4.3,0,8.8-1,13.6-2.9c4.8-1.9,9.7-4.7,14.6-8.1   c9.9-6.8,19.7-16.1,28.4-25.5c17.5-18.9,30.7-38.6,32.2-40.8l0.1-0.2c0.2-0.3,0.4-0.6,0.7-0.8c4.9-4,10.7-6.8,17.1-8.5   c6.4-1.7,13.4-2.5,20.6-2.5c14.1,0,29.4,2.8,43.9,7.1c14.5,4.3,28.2,10,39.1,15.9c3.2,1.8,6.2,3.5,8.9,5.3   c-2.9-8.6-7.5-16-13.3-22.4c-8-8.7-18.4-15.5-30.5-20.7c-24.2-10.4-54.8-14.3-83.8-14.3c-18.3,0-36,1.5-51.2,3.8   c-20.7,3.1-37.7,15-49.5,30.3c-11.8,15.3-18.3,33.9-18.3,49.6c0,7.3,1.4,14,4.2,19.5C1585.5,1219.9,1589.6,1224.2,1595.4,1227.1z"/><path class="st4" d="M1616.7,1235.2c2-0.6,4-1.2,6-2c9.8-4,19.4-10.9,28.5-18.9c13.6-12,26-26.5,35-38.1c7.7-9.9,13-17.7,14.4-19.7   c3.9-3.1,8.6-5.4,14-6.9c5.6-1.5,11.9-2.2,18.7-2.2c17.5,0,37.9,4.8,55.6,11.4c8.9,3.3,17.1,7,24,10.8c6.7,3.6,12.2,7.4,15.7,10.6   c0.1,0.1,0.2,0.2,0.3,0.3c1.1,1.1,2.8,1.3,4.2,0.5c1.4-0.7,2.1-2.3,1.8-3.8c0-0.3-0.1-0.5-0.2-0.8c-0.9-4.8-2.2-9.3-4-13.6   c-1-2.4-2.1-4.8-3.3-7.1c-2.8-5.3-6.3-10.1-10.3-14.4c-10-10.9-23.2-18.8-38.2-24.5c-2.3-0.9-4.7-1.7-7-2.5c-2.6-0.9-5.3-1.6-8-2.4   c-21-5.7-44.2-7.9-66.5-7.9c-18.7,0-36.7,1.5-52.2,3.9c-22.9,3.5-41.4,16.6-54.2,33.1c-12.7,16.5-19.8,36.4-19.8,54.1   c0,8.2,1.6,16,5,22.8c3.4,6.7,8.7,12.3,15.9,15.9c4.4,2.2,9,3.2,13.7,3.2c0.1,0,0.2,0,0.3,0   C1609.7,1236.8,1613.2,1236.2,1616.7,1235.2z M1578.6,1195c0-15.7,6.5-34.4,18.3-49.6c11.8-15.3,28.7-27.2,49.5-30.3   c15.1-2.3,32.8-3.8,51.2-3.8c29.1,0,59.7,3.9,83.8,14.3c12.1,5.2,22.5,12,30.5,20.7c5.8,6.4,10.4,13.7,13.3,22.4   c-2.7-1.8-5.6-3.5-8.9-5.3c-10.9-5.9-24.6-11.7-39.1-15.9c-14.5-4.3-29.8-7.1-43.9-7.1c-7.3,0-14.2,0.8-20.6,2.5   c-6.4,1.7-12.2,4.5-17.1,8.5c-0.3,0.2-0.5,0.5-0.7,0.8l-0.1,0.2c-1.5,2.2-14.7,21.9-32.2,40.8c-8.7,9.5-18.6,18.7-28.4,25.5   c-4.9,3.4-9.9,6.2-14.6,8.1c-4.8,1.9-9.3,2.9-13.6,2.9c-3.7,0-7.2-0.8-10.5-2.4c-5.7-2.9-9.8-7.2-12.6-12.7   C1580,1209,1578.6,1202.3,1578.6,1195z"/><path class="st3" d="M1858.5,1109.1c1.3,11,3.5,20.8,6.7,27.9c2,4.5,4.4,7.8,6.9,9.8c4.5,1.5,8.3,2.5,11.2,3.1c-1-2-2-4.4-3-7.4   c-4.2-12.5-8.2-34.9-8.2-76c0-9.6,0.2-20.4,0.7-32.2c-4.8,5.6-10,10.3-15.4,14.3c-0.4,8-0.7,16.7-0.7,25.5   C1856.7,1086,1857.2,1098.1,1858.5,1109.1z"/><path class="st4" d="M1888.3,1143.5c-1.5-3.8-3.2-9.2-4.6-16.9c-2.4-12.8-4.4-31.9-4.4-60.1c0-10.5,0.3-22.3,0.9-35.5h-3.5   c-0.4,0-0.7-0.1-1.1-0.2c-0.9,1.2-1.9,2.4-2.9,3.5c-0.5,11.8-0.7,22.5-0.7,32.2c0,41.1,4,63.6,8.2,76c1,3,2,5.5,3,7.4   c-2.9-0.7-6.6-1.7-11.2-3.1c-2.6-2-4.9-5.3-6.9-9.8c-3.2-7.1-5.3-16.9-6.7-27.9c-1.3-11-1.8-23.2-1.8-35.1c0-8.8,0.3-17.5,0.7-25.5   c-2.4,1.8-4.9,3.4-7.5,4.9c-0.3,6.6-0.4,13.5-0.4,20.6c0,16.2,0.9,32.8,3.5,47c0.7,3.5,1.4,6.8,2.3,9.9c0.9,3.2,2,6.2,3.2,9   c0.3,0.7,0.6,1.3,0.9,1.9c2.3,4.6,5.1,8.4,8.8,11.1c0.3,0.2,0.6,0.4,1,0.5c14.8,4.9,22,5,22.4,5c1.7,0,3.2-1.2,3.6-2.9   c0.3-1.6-0.5-3.2-1.9-3.9l0,0c0,0-0.3-0.2-0.8-0.7c-0.4-0.4-0.9-1-1.5-1.9C1890.3,1147.8,1889.3,1146,1888.3,1143.5z"/><path class="st5" d="M1913.5,986.1c14.3-6.2,29-8,42.2-8c14.6,0,27.6,2.2,36.3,3.2c2.9,0.4,5.3,0.6,7.1,0.6c1.2,0,2-0.1,2.3-0.2   l0.2-0.3c0.2-0.4,0.5-1.1,0.8-1.9c0.6-1.7,1.3-4.1,1.9-7c1.2-5.9,2.1-13.8,2.1-22.8c0-13.9-2.1-30.3-8.4-45.6   c-6.3-15.3-16.7-29.5-33.3-39.5c-11.1-6.7-25.1-11.5-42.7-13.5c-6.5-0.7-13.1-1.1-19.6-1.1c-41.3,0-81.3,14.4-110.8,40.2   c-29.6,25.9-48.8,63-48.8,109.3c0,16.8,2.6,34.9,8.2,54c0.5,0.1,1,0.3,1.7,0.5c2.3,0.7,5.6,1.5,9.7,2.4c8.2,1.8,19.7,3.5,32.4,3.5   c13.4,0,28.2-2,42.2-7.9c13.9-5.9,27.1-15.7,37.4-31.7C1885.5,1002.9,1899.3,992.3,1913.5,986.1z"/><path class="st4" d="M1758.1,1062.7c8.7,2,21.8,4.3,36.6,4.3c11.4,0,23.8-1.4,36.1-5.2c2.6-0.8,5.3-1.8,7.9-2.8   c0.3-0.1,0.7-0.2,1-0.4c3.4-1.5,6.8-3.2,10.2-5.1c2.5-1.5,5-3.1,7.5-4.9c5.4-3.9,10.6-8.7,15.4-14.3c1-1.1,1.9-2.3,2.9-3.5   c-1.5-0.5-2.6-1.8-2.6-3.4c0-2,1.6-3.6,3.6-3.6h3.9c10.4-15.9,22.8-25.3,35.7-31c13-5.7,26.7-7.4,39.3-7.4c2.4,0,4.8,0.1,7.1,0.2   c2.6,0.1,5.1,0.3,7.6,0.5c3.8,0.3,7.4,0.7,10.7,1.2c3.7,0.5,7.1,0.9,10.1,1.3c3,0.4,5.7,0.6,7.9,0.6c1.3,0,2.5-0.1,3.6-0.3   c1.1-0.3,2.3-0.7,3.5-1.6l0,0c0.8-0.8,1.3-1.5,1.8-2.4c0.8-1.5,1.5-3.3,2.2-5.6c2-6.7,3.5-17.2,3.5-29.7c0-19.5-3.9-43.7-17.4-64.3   c-6.7-10.3-15.8-19.7-27.9-27c-12.1-7.3-27.1-12.5-45.6-14.5c-6.8-0.8-13.6-1.1-20.4-1.1c-42.9,0-84.6,14.9-115.6,42   c-31,27.1-51.3,66.4-51.3,114.7c0,18.1,2.8,37.5,9,57.9c0.3,1.1,1.2,2,2.3,2.4c0.1,0,1.6,0.5,4.2,1.3   C1752.9,1061.4,1755.3,1062.1,1758.1,1062.7z M1836.9,1051.9c-13.9,5.9-28.7,7.9-42.2,7.9c-12.7,0-24.1-1.8-32.4-3.5   c-4.1-0.9-7.4-1.8-9.7-2.4c-0.7-0.2-1.2-0.4-1.7-0.5c-5.6-19.1-8.2-37.2-8.2-54c0-46.2,19.2-83.4,48.8-109.3   c29.6-25.8,69.6-40.2,110.8-40.2c6.5,0,13.1,0.4,19.6,1.1c17.6,2,31.5,6.8,42.7,13.5c16.6,10,27,24.2,33.3,39.5   c6.3,15.3,8.5,31.7,8.4,45.6c0,9-0.9,16.9-2.1,22.8c-0.6,2.9-1.3,5.3-1.9,7c-0.3,0.8-0.6,1.5-0.8,1.9l-0.2,0.3   c-0.3,0.1-1.1,0.2-2.3,0.2c-1.7,0-4.2-0.2-7.1-0.6c-8.8-1-21.7-3.2-36.3-3.2c-13.3,0-28,1.8-42.2,8c-14.3,6.2-28,16.8-39.2,34.1   C1864,1036.1,1850.8,1045.9,1836.9,1051.9z"/><path class="st3" d="M964.2,1496c-12-4.8-24.6-8-36.7-8c-3.3,0-6.6,0.2-9.9,0.7c-20,3-39.8,8.2-57.4,18.5   c-17.6,10.3-33.2,25.7-44.8,49.9c-7.7,16.1-13.7,36.1-17.2,60.9c-8.1,58.3-9.8,126.9-9.8,174c0,25.4,0.5,44.6,0.7,52.6   c0,1,0.1,1.8,0.1,2.5c0.6,0.5,1.3,1,2.2,1.8c2.3,1.8,5.6,4.4,9.9,7.5c8.6,6.2,20.8,14.6,35.4,22.9c29.2,16.7,67.9,33.2,105.5,33.2   c18.5,0,36.8-4,53.7-13.8c6-3.5,11.3-8.3,16.1-14.2c-32.8,25.5-84.4,19.2-98.8-44.8c-4.1-18.3-4.8-41.3-3.3-66.7   c-7.3,0-14.7-0.8-21.5-2.4c-6.9-1.7-13.2-4.3-18.6-8c-2.7-1.9-4.9-4.4-6.6-7.4c-1.7-2.9-3-6.3-4-9.9c-2-7.3-2.7-15.8-2.7-24.8   c0-18.1,3-38.3,5.9-54.1c1.2-6.5,2.4-12.2,3.4-16.7c-0.5-1.8-0.7-3.7-0.7-5.7c0-2.9,0.6-6,1.9-9.1c0.7-1.7,1.9-3,3.3-4   c1.4-1,2.9-1.7,4.6-2.2c3.4-1,7.4-1.4,11.8-1.4c7.1,0,15.4,1,23.9,2.4c7.1,1.2,14.3,2.6,21.1,4.2c14.9-66.1,31.6-119.5,31.6-119.5   s0,0,27.3,8.2c7.9,2.4,15.5,22.6,22.1,52c0.2-16.6,0.5-33,1.2-48.8c-1.1-0.8-2.2-1.7-3.3-2.5C998.9,1514.1,982.2,1503.2,964.2,1496   z M806.5,1744.8c0-2.8-0.1-5.5-0.1-8.3c0-7.1,0.1-14.1,0.5-20.7c0.1-1.3,1.2-2.4,2.5-2.3c1.3,0.1,2.4,1.2,2.3,2.5   c-0.3,6.5-0.5,13.4-0.5,20.5c0,2.7,0,5.4,0.1,8.2l0,0c0,1.3-1,2.4-2.4,2.5C807.6,1747.2,806.5,1746.2,806.5,1744.8z M809.2,1802.6   c-0.7-9-1.3-18.8-1.8-28.9c-0.1-1.3,1-2.5,2.3-2.5c1.3-0.1,2.5,1,2.5,2.3c0.5,10.1,1.1,19.8,1.8,28.7l0,0c0.1,1.3-0.9,2.5-2.2,2.6   C810.5,1805,809.3,1804,809.2,1802.6z M816,1848c-1.3,0.2-2.5-0.8-2.7-2.1c0,0-0.6-5.5-1.5-14.5c-0.1-1.3,0.8-2.5,2.2-2.6   c1.3-0.1,2.5,0.8,2.6,2.2c0.4,4.5,0.8,8.1,1.1,10.6s0.4,3.8,0.4,3.8l0,0C818.2,1846.7,817.3,1847.9,816,1848z M820.6,1659.5   c-2.2,10.4-4,20-5.7,28.3l0,0c-0.3,1.3-1.5,2.2-2.9,1.9c-1.3-0.3-2.2-1.5-1.9-2.9c1.7-8.2,3.5-17.9,5.7-28.3   c0.3-1.3,1.6-2.1,2.9-1.9C820,1656.9,820.8,1658.2,820.6,1659.5z M836.7,1604.6c-3.7,8.7-6.7,17.9-9.3,27c-0.4,1.3-1.7,2-3,1.7   c-1.3-0.4-2-1.7-1.7-3c2.7-9.3,5.8-18.6,9.5-27.6c0.5-1.2,1.9-1.8,3.2-1.3C836.7,1601.9,837.3,1603.4,836.7,1604.6z M869.1,1559.2   c-7.3,5.5-13.6,12.4-19.1,20.4v0c-0.8,1.1-2.3,1.4-3.4,0.6c-1.1-0.8-1.4-2.3-0.6-3.4c5.7-8.3,12.3-15.7,20.2-21.5   c1.1-0.8,2.6-0.6,3.4,0.5C870.4,1556.9,870.2,1558.4,869.1,1559.2z M908.1,1546c-4.9,0.1-9.6,0.7-13.9,1.6l0,0   c-1.3,0.3-2.6-0.5-2.9-1.8c-0.3-1.3,0.5-2.6,1.8-2.9c4.7-1,9.6-1.6,14.9-1.8c1.3,0,2.4,1,2.5,2.4   C910.5,1544.9,909.5,1546,908.1,1546z"/><path class="st4" d="M1012.2,1884.6c-4.8,6-10.1,10.8-16.1,14.2c-17,9.8-35.2,13.8-53.7,13.8c-37.6,0-76.3-16.5-105.5-33.2   c-14.6-8.3-26.8-16.7-35.4-22.9c-4.3-3.1-7.6-5.7-9.9-7.5c-1-0.8-1.7-1.3-2.2-1.8c0-0.6,0-1.4-0.1-2.5c-0.2-8-0.7-27.2-0.7-52.6   c0-47.1,1.7-115.7,9.8-174c3.5-24.9,9.4-44.8,17.2-60.9c11.6-24.1,27.2-39.5,44.8-49.9c17.6-10.3,37.5-15.4,57.4-18.5   c3.2-0.5,6.5-0.7,9.9-0.7c12.2,0,24.7,3.1,36.7,8c18,7.2,34.6,18.1,46.7,27.3c1.2,0.9,2.3,1.7,3.3,2.5c0.1-3,0.3-5.9,0.4-8.8   c-4-3-8.4-6.1-13.2-9.3c-10.1-6.7-21.9-13.4-34.5-18.4c-2.3-0.9-4.6-1.8-6.9-2.6c-3.1-0.7-6.1-1.6-9-2.7c-7.7-2-15.6-3.2-23.5-3.2   c-3.7,0-7.3,0.3-11,0.8c-13.6,2.1-27.4,5.1-40.6,10.2c-19.8,7.6-38.5,19.7-53.4,39.6c-14.9,19.9-26.1,47.4-31.4,85.6   c-8.2,58.9-9.9,127.7-9.9,175c0,34,0.9,56.9,0.9,57c0,1,0.5,2,1.3,2.6c0.1,0.1,20.1,17,49.9,34.1c29.8,17,69.4,34.1,109.1,34.1   c19.5,0,39.2-4.2,57.4-14.7c10.8-6.2,19.4-15.9,26.3-28c-0.5-1.5-1-3.1-1.5-4.7C1020.9,1877,1016.7,1881.1,1012.2,1884.6z"/><path class="st6" d="M991,1522.6c-27.3-8.2-27.3-8.2-27.3-8.2s-16.7,53.4-31.6,119.5c1.4,0.3,2.9,0.6,4.2,1   c15.9,3.7,28.4,7.4,28.4,7.4c1,0.3,1.9,1,2.3,2c0.4,1,0.4,2.1-0.1,3.1c0,0,0,0,0,0.1c0.4,4.5,3.2,37.5,3.2,65.6   c0,7.5-0.2,14.7-0.7,21c-0.5,6.2-1.3,11.5-2.7,15.4c-1.4,4-4.3,7.4-8,10.3c-3.7,2.9-8.2,5.3-13.3,7.2c-10.2,3.9-22.7,6.1-35.2,6.1   c0,0-0.1,0-0.1,0c-1.5,25.4-0.8,48.5,3.3,66.7c14.4,64,66,70.2,98.8,44.8c4.5-3.5,8.7-7.6,12.3-12.2c-2.2-7.5-3.5-16.2-3.5-26.2   c0-0.8,0-1.5,0-2.3v0c0-0.9,0-1.9,0-3c0-16.5-2-52.5-4-97.3c-2-44.9-4-98.7-4-151.2c0-6,0-11.9,0.1-17.8   C1006.5,1545.2,998.9,1524.9,991,1522.6z"/><path class="st3" d="M1174.3,1354c-3.4,0.7-6.9,1.4-10.5,2.2c-31.2,6.6-70.9,15.4-104.5,24.1c-3.4,0.9-6.5,2.9-9.6,6.3   c-3.1,3.4-6,8.1-8.6,14c-3.7,8.4-6.9,19.1-9.5,31.6c-0.3,5.1-1.2,10-2.7,14.7c-0.1,0.5-0.2,1-0.3,1.6c-6.2,39.2-8.3,90.8-8.3,143.8   c0,52.3,2,106,4,150.8c2,44.9,4,80.7,4,97.7c0,1.1,0,2.1,0,3.1v0c0,0.7,0,1.4,0,2.1c0,13.3,2.4,23.8,6,32.1   c3.6,8.3,8.3,14.4,13.1,18.9c8.7,8.2,17.5,11.1,19.3,11.6c0.8,0,2.9,0.1,6,0.2c0.2,0,0.4,0,0.6,0c9.1-58.6,25.3-124.3,45.4-191.9   c26.8-90,60.4-183.5,93.5-268.2c6-15.3,11.9-30.3,17.8-45c-4.8-17.2-9.6-33.8-14.4-49.8H1174.3z M1067,1496.8L1067,1496.8   c0.2-1.3,1.4-2.3,2.7-2.1c1.3,0.2,2.3,1.4,2.1,2.7c-1.2,9.1-2.1,18.7-2.8,28.7c-0.1,1.3-1.2,2.3-2.6,2.3c-1.3-0.1-2.3-1.2-2.3-2.6   C1064.9,1515.7,1065.8,1506,1067,1496.8z M1064.6,1613.1c0-1.3,1.1-2.4,2.5-2.4c1.3,0,2.4,1.1,2.4,2.5c-0.2,9.5-0.7,19.3-1.5,29.1   c-0.1,1.3-1.3,2.3-2.6,2.2c-1.3-0.1-2.3-1.3-2.2-2.6C1063.9,1632.1,1064.5,1622.5,1064.6,1613.1L1064.6,1613.1z M1063.2,1555.1   L1063.2,1555.1c0-1.3,1.1-2.4,2.4-2.4c1.3,0,2.4,1.1,2.4,2.4c0,0.7,0,1.4,0,2.2c0,8.6,0.2,17.5,0.7,26.7c0.1,1.3-1,2.5-2.3,2.5   c-1.3,0.1-2.5-1-2.5-2.3c-0.5-9.3-0.7-18.2-0.7-27C1063.2,1556.5,1063.2,1555.8,1063.2,1555.1z M1060.4,1670.7   c0.1-1.3,1.3-2.3,2.7-2.1c1.3,0.1,2.3,1.3,2.1,2.7c-1.1,9.6-2.2,19.3-3.4,28.9c-0.2,1.3-1.4,2.3-2.7,2.1c-1.3-0.2-2.3-1.4-2.1-2.7   C1058.2,1690,1059.4,1680.3,1060.4,1670.7z M1053.4,1818c-1.3,0.2-2.5-0.8-2.7-2.1c-1-8.3-1.4-17-1.4-26.1c0-1.1,0-2.1,0-3.2h0   c0-1.3,1.1-2.4,2.4-2.4c1.3,0,2.4,1.1,2.4,2.4c0,1,0,2.1,0,3.1c0,9,0.4,17.5,1.4,25.5C1055.7,1816.6,1054.7,1817.8,1053.4,1818z    M1052.9,1760c-1.3-0.1-2.3-1.3-2.2-2.6c0.8-9.5,1.7-19.1,2.9-29v0c0.2-1.3,1.3-2.3,2.7-2.1c1.3,0.2,2.3,1.3,2.1,2.7   c-1.1,9.8-2.1,19.4-2.8,28.8C1055.4,1759.1,1054.3,1760.1,1052.9,1760z M1076.9,1869.7c-0.9,1-2.5,1-3.4,0   c-7.1-7-12.3-15.5-16.1-25.1h0c-0.5-1.2,0.1-2.6,1.4-3.1c1.2-0.5,2.6,0.1,3.1,1.4c3.5,9.1,8.4,17,14.9,23.4   C1077.9,1867.2,1077.9,1868.8,1076.9,1869.7z M1082.8,1440.8c-2.3,8.5-4.5,17.9-6.5,28.1c-0.3,1.3-1.5,2.2-2.8,1.9   c-1.3-0.3-2.2-1.5-1.9-2.8c2-10.4,4.3-19.9,6.5-28.5l0,0c0.3-1.3,1.7-2.1,3-1.7C1082.4,1438.2,1083.2,1439.5,1082.8,1440.8z    M1119.3,1377l-6.2,32.8c-0.4,1.9-2.2,3.2-4.1,2.9l-16.7-2.4c-0.3,1-0.7,1.9-1.1,2.9c-0.4,1.3-1.8,1.9-3.1,1.5   c-1.3-0.4-1.9-1.8-1.5-3.1c0.2-0.7,0.5-1.4,0.7-2l-8.7-1.3c-1.1-0.2-2-0.8-2.6-1.7c-0.6-0.9-0.7-2.1-0.3-3.1l8.9-23.8   c0.5-1.2,1.5-2.1,2.8-2.3l27.5-4.7c1.2-0.2,2.4,0.2,3.2,1C1119.2,1374.6,1119.5,1375.8,1119.3,1377z"/><path class="st3" d="M1234.4,1392.8c5.4-13.3,10.6-26.2,15.8-38.7h-27.1C1226.9,1366.6,1230.7,1379.5,1234.4,1392.8z"/><path class="st3" d="M1156,1910.6c43.2,0.8,98,1.5,154.7,1.8c0-3.2,0.1-6.4,0.1-9.6c0-9.1-0.1-18.3-0.4-27.5   c-65.9,0.4-153-15.6-153-15.6c-41.3-47.4,57.9-264.3,55.3-350.3c-1-34.1,10.5-55.1,27.5-68.1c-2.3-8.8-4.7-17.5-7-26   c-37.3,93.6-77,201-107.5,303.7c-19.9,67.1-36,132.1-45,190c3,0.1,6.5,0.2,10.3,0.2C1106.7,1909.7,1129.1,1910.2,1156,1910.6z    M1097.6,1882c0.4-1.3,1.8-1.9,3.1-1.5c7.9,2.7,17.1,4.3,27.8,4.9c1.3,0.1,2.4,1.2,2.3,2.5c-0.1,1.3-1.2,2.4-2.5,2.3   c-11.1-0.5-20.7-2.3-29.1-5.1C1097.8,1884.6,1097.2,1883.3,1097.6,1882z"/><path class="st3" d="M1330.4,1420.5c43-0.2,35.1,115.2,59.7,195.1c24.6,79.9,18.4,209-11.4,244.1c-9,10.5-32.5,14.8-61,15.5   c0.2,9.3,0.4,18.5,0.4,27.7c0,3.2,0,6.4-0.1,9.6c11.4,0,22.9,0.1,34.4,0.1c14.4,0,25.9-4.2,35.5-11.9c9.6-7.7,17.3-18.9,23.2-33.2   c11.9-28.6,16.6-69,16.6-114.4c0-61.6-8.5-132.3-18.5-195.7c-9.9-63.4-21.2-119.4-26.6-151.9c-2.4-14.6-7.1-26.1-13.3-35.4   c-4.3-6.4-9.3-11.7-14.9-16.1h-6.3c0.2,1.3,0.3,2,0.3,2c0.2,1.1-0.2,2.3-1,3.1c-0.8,0.8-1.9,1.2-3.1,1c0,0,0,0-43.6-6.1h-42.6   c-6.7,16.1-13.5,32.9-20.5,50.2c3,10.7,6,21.6,9,32.8C1272.1,1421.5,1306.5,1420.6,1330.4,1420.5z"/><path class="st4" d="M1066.1,1916c0,0,2.2,0.1,6.2,0.2c0.4-2.4,0.7-4.8,1.1-7.2c-0.2,0-0.4,0-0.6,0c-3.1-0.1-5.2-0.1-6-0.2   c-1.8-0.5-10.6-3.4-19.3-11.6c-4.8-4.5-9.5-10.6-13.1-18.9c-3.6-8.3-6-18.8-6-32.1c0-0.7,0-1.4,0-2.1v0c0-1,0-2,0-3.1   c0-16.9-2-52.8-4-97.7c-2-44.8-4-98.5-4-150.8c0-53,2.1-104.6,8.3-143.8c0.1-0.5,0.2-1,0.3-1.6c-2.2,6.8-5.6,13.1-9.9,18.6   c-1,8.5-1.9,17.5-2.6,26.8c-0.6,8-1.1,16.2-1.6,24.6c-0.1,2.9-0.3,5.9-0.4,8.8c-0.7,15.8-1.1,32.1-1.2,48.8   c-0.1,5.9-0.1,11.8-0.1,17.8c0,52.5,2,106.3,4,151.2c2,44.9,4,80.9,4,97.3c0,1.1,0,2.1,0,3v0c0,0.8,0,1.5,0,2.3   c0,10,1.3,18.7,3.5,26.2c0.5,1.6,1,3.2,1.5,4.7c0.6,1.6,1.1,3.1,1.8,4.5c6.2,14,15.5,22.6,23.2,27.7c2.1,1.4,4,2.5,5.8,3.3   c4.8,2.4,8.2,3.3,8.4,3.3C1065.6,1915.9,1065.8,1916,1066.1,1916z"/><path class="st4" d="M1310.7,1912.4c-56.7-0.3-111.5-1-154.7-1.8c-26.9-0.5-49.3-1-65-1.3c-3.9-0.1-7.3-0.2-10.3-0.2   c-0.4,2.4-0.7,4.8-1.1,7.2c34.3,0.8,129.4,2.9,231,3.4C1310.6,1917.3,1310.7,1914.9,1310.7,1912.4z"/><path class="st4" d="M1354.4,1354c5.6,4.4,10.6,9.7,14.9,16.1c6.2,9.3,10.9,20.9,13.3,35.4c5.4,32.5,16.7,88.5,26.6,151.9   c9.9,63.4,18.5,134.1,18.5,195.7c0,45.4-4.7,85.8-16.6,114.4c-5.9,14.3-13.6,25.6-23.2,33.2c-9.6,7.6-21.2,11.8-35.5,11.9   c-11.5,0-23,0-34.4-0.1c0,2.4-0.1,4.8-0.1,7.3c11.5,0,23,0.1,34.5,0.1c7.2,0,13.8-1,20-2.9c7.4-2.3,14.1-5.8,20.1-10.5   c8.1-6.5,14.8-15.1,20.3-25.3c8.2-15.4,13.7-34.4,17.2-56.1c3.5-21.7,5-46,5-71.8c0-30.2-2-62.4-5.2-94.8c-0.3-3.2-0.6-6.4-1-9.6   c-3.3-31.3-7.7-62.7-12.3-92.5c-9.9-63.6-21.2-119.7-26.7-152c-2.6-15.4-7.6-28-14.4-38.3c-3-4.5-6.4-8.5-10-12H1354.4z"/><path class="st4" d="M1031.6,1428.9c0,1.1,0,2.3-0.1,3.4c2.6-12.5,5.8-23.2,9.5-31.6c2.6-5.9,5.5-10.7,8.6-14   c3.1-3.4,6.3-5.4,9.6-6.3c33.6-8.8,73.3-17.5,104.5-24.1c3.6-0.8,7.1-1.5,10.5-2.2h-34.9c-26.5,5.8-55.9,12.5-81.9,19.3   c-5,1.3-9.4,4.3-13.2,8.5c-6.3,7-11.1,17.4-15.1,30.3C1030.8,1417.4,1031.6,1423.1,1031.6,1428.9z"/><path class="st1" d="M1378.7,1859.7c29.9-35.1,36-164.2,11.4-244.1c-24.6-79.9-16.7-195.4-59.7-195.1c-23.9,0.1-58.3,1-83.8,16.5   c35.1,131.4,67.4,290.1,71,438.2C1346.2,1874.4,1369.7,1870.2,1378.7,1859.7z"/><path class="st1" d="M1212.7,1509.4c2.6,86-96.6,302.9-55.3,350.3c0,0,87.1,16,153,15.6c-3.6-146.3-35.4-303.4-70.2-434   C1223.3,1454.3,1211.7,1475.2,1212.7,1509.4z"/><path class="st3" d="M935.8,1465.6c9.4,9.4,22.3,15.2,36.7,15.2c14.3,0,27.3-5.8,36.7-15.2c9.4-9.4,15.2-22.3,15.2-36.7   c0-14.3-5.8-27.3-15.2-36.7c-9.4-9.4-22.3-15.2-36.7-15.2c-14.3,0-27.3,5.8-36.7,15.2c-9.4,9.4-15.2,22.3-15.2,36.7   C920.6,1443.3,926.4,1456.2,935.8,1465.6z M991,1389.1c17.3,0,31.4,14,31.4,31.4c0,17.3-14,31.4-31.4,31.4   c-17.3,0-31.4-14-31.4-31.4C959.6,1403.1,973.7,1389.1,991,1389.1z"/><path class="st4" d="M972.5,1488c18.8,0,35.6-8.8,46.4-22.5c4.3-5.5,7.7-11.8,9.9-18.6c1.5-4.7,2.4-9.6,2.7-14.7   c0.1-1.1,0.1-2.3,0.1-3.4c0-5.9-0.9-11.5-2.5-16.9c-7.3-24.4-29.9-42.3-56.7-42.3c-32.7,0-59.1,26.5-59.1,59.1   c0,25.1,15.6,46.5,37.6,55.1c2.9,1.1,5.9,2,9,2.7C964,1487.6,968.2,1488,972.5,1488z M972.5,1377c14.3,0,27.3,5.8,36.7,15.2   c9.4,9.4,15.2,22.3,15.2,36.7c0,14.3-5.8,27.3-15.2,36.7c-9.4,9.4-22.3,15.2-36.7,15.2c-14.3,0-27.3-5.8-36.7-15.2   c-9.4-9.4-15.2-22.3-15.2-36.7c0-14.3,5.8-27.3,15.2-36.7C945.2,1382.8,958.2,1377,972.5,1377z"/><path class="st3" d="M973.9,1437.5c4.4,4.4,10.4,7.1,17.1,7.1c6.7,0,12.7-2.7,17.1-7.1c4.4-4.4,7.1-10.4,7.1-17.1   c0-6.7-2.7-12.7-7.1-17.1c-4.4-4.4-10.4-7.1-17.1-7.1c-6.7,0-12.7,2.7-17.1,7.1c-4.4,4.4-7.1,10.4-7.1,17.1   C966.9,1427.2,969.6,1433.2,973.9,1437.5z"/><path class="st4" d="M991,1451.9c17.3,0,31.4-14,31.4-31.4c0-17.3-14-31.4-31.4-31.4c-17.3,0-31.4,14-31.4,31.4   C959.6,1437.8,973.7,1451.9,991,1451.9z M991,1396.4c6.7,0,12.7,2.7,17.1,7.1c4.4,4.4,7.1,10.4,7.1,17.1c0,6.7-2.7,12.7-7.1,17.1   c-4.4,4.4-10.4,7.1-17.1,7.1c-6.7,0-12.7-2.7-17.1-7.1c-4.4-4.4-7.1-10.4-7.1-17.1c0-6.7,2.7-12.7,7.1-17.1   C978.3,1399.1,984.3,1396.4,991,1396.4z"/><path class="st3" d="M1240,1164.4h-80.3c2.8,7.3,6.2,16.7,10.3,27.9c24-2.3,51.9-4.4,79.4-5.2   C1245.7,1178,1242.5,1170.2,1240,1164.4z"/><path class="st3" d="M1385.5,1216.2c16.9,55.2,13.2,103.5,13.2,103.5s-22.7-0.1-56.2-0.7c2,11.5,3.6,21.2,4.6,27.7h30.6   c13.9,0,26.4-5.6,35.5-14.7c9.1-9.1,14.7-21.6,14.7-35.5v-82c0-13.9-5.6-26.4-14.7-35.5c-9.1-9.1-21.6-14.7-35.5-14.7h-36.9   c-3,6.6-7,15.1-11.6,25.4C1359.1,1193.6,1381,1201.6,1385.5,1216.2z"/><path class="st3" d="M1221,1346.8h32.3c4.2-10.1,8.3-19.9,12.3-29.4c-17.8-0.5-36.1-1.1-54.1-1.8   C1214.6,1325.6,1217.8,1336,1221,1346.8z"/><path class="st3" d="M1301.2,1164.7c3.6,6.3,7,14.3,10.2,23.3c3.5,0.3,6.9,0.6,10.2,0.9c4.4-9.7,8.1-17.9,11.2-24.5H1301   C1301.1,1164.5,1301.1,1164.6,1301.2,1164.7z"/><path class="st3" d="M1162.6,1193c-4.3-11.8-7.8-21.3-10.6-28.6h-81.6c-13.9,0-26.4,5.6-35.5,14.7c-8.8,8.8-14.3,20.9-14.6,34.3   h65.2c2.3,0,4.5,0.4,6.6,1.2c5.3-8.6,9.2-14.2,9.2-14.2S1126.8,1196.6,1162.6,1193z"/><path class="st3" d="M1297.7,1344.4c0-5.4-0.8-12.3-2.3-20.1c-0.4-2-0.8-4-1.3-6.1c-6.8-0.2-13.8-0.3-20.8-0.5   c-2.1,5-4.2,10-6.4,15.2c-1.9,4.6-3.9,9.3-5.8,14h36.5C1297.7,1346,1297.7,1345.2,1297.7,1344.4z"/><path class="st3" d="M1203.7,1315.2c-63.9-2.7-121.6-7.1-133.2-13.9c-12.5-7.4-7.8-28.2,1.3-49h-51.7v44.3   c0,13.9,5.6,26.4,14.7,35.5c9.1,9.1,21.6,14.7,35.5,14.7h143.1C1210.1,1335.9,1206.9,1325.4,1203.7,1315.2z"/><path class="st4" d="M1020.2,1213.4c0.3-13.4,5.8-25.5,14.6-34.3c9.1-9.1,21.6-14.7,35.5-14.7h81.6c-1-2.8-2-5.2-2.8-7.3h-78.8   c-31.4,0-56.8,25.1-57.4,56.3c0.4,0,0.7-0.1,1.1-0.1H1020.2z"/><path class="st4" d="M1300.5,1354c-1-0.1-1.8-0.6-2.4-1.4c-0.6-0.8-0.8-1.7-0.7-2.7c0.1-0.9,0.2-2,0.3-3.1h-36.5   c-1,2.4-2,4.8-3,7.3h42.6C1300.6,1354,1300.5,1354,1300.5,1354z"/><path class="st4" d="M1174.3,1354h41.3c-0.7-2.4-1.5-4.9-2.2-7.3h-143.1c-13.9,0-26.4-5.6-35.5-14.7c-9.1-9.1-14.7-21.6-14.7-35.5   v-44.3h-6.1c-0.4,0-0.8,0-1.1-0.1v44.4c0,31.7,25.7,57.5,57.5,57.5h69.1H1174.3z"/><path class="st4" d="M1159.7,1164.4h80.3c-1.3-3-2.3-5.4-3.1-7.3H1157C1157.8,1159.3,1158.7,1161.7,1159.7,1164.4z"/><path class="st4" d="M1341.9,1162c-0.3,0.8-0.7,1.6-1.1,2.4h36.9c13.9,0,26.4,5.6,35.5,14.7c9.1,9.1,14.7,21.6,14.7,35.5v82   c0,13.9-5.6,26.4-14.7,35.5c-9.1,9.1-21.6,14.7-35.5,14.7H1347c0.5,3.2,0.9,5.7,1.1,7.3h6.3h10.9h12.3c31.7,0,57.5-25.7,57.5-57.5   v-82c0-31.7-25.7-57.5-57.5-57.5h-33.5C1343.5,1158.6,1342.7,1160.2,1341.9,1162z"/><path class="st4" d="M1301,1164.4h31.8c1.2-2.7,2.4-5.1,3.4-7.3h-40C1297.8,1159.2,1299.4,1161.6,1301,1164.4z"/><path class="st4" d="M1223.2,1354h27.1c1-2.4,2-4.9,3-7.3H1221C1221.7,1349.2,1222.4,1351.6,1223.2,1354z"/><path class="st1" d="M1342.4,1319.1c33.5,0.5,56.2,0.7,56.2,0.7s3.7-48.3-13.2-103.5c-4.5-14.6-26.4-22.6-56.3-26.4   c-1.4,3.2-2.9,6.5-4.5,10c-1.8,3.9-3.6,8.1-5.6,12.4c4.3,15,8.2,31.3,11.8,47.4C1335.5,1281.1,1339.5,1302.1,1342.4,1319.1z"/><path class="st1" d="M1249.4,1187.1c-27.6,0.8-55.4,2.9-79.4,5.2c10.7,29.6,25.4,72,41.4,123.3c18,0.7,36.3,1.3,54.1,1.8   c5.9-14.1,11.7-27.6,17.2-40.3c-4-12.6-8.6-25.6-13.2-38.2C1262.6,1219.9,1255.4,1201.8,1249.4,1187.1z"/><path class="st1" d="M1312.2,1190.2c1.3,3.6,2.5,7.5,3.7,11.4c2-4.4,3.9-8.7,5.7-12.6c-3.3-0.3-6.7-0.6-10.2-0.9   C1311.7,1188.7,1311.9,1189.4,1312.2,1190.2z"/><path class="st1" d="M1070.5,1301.3c11.6,6.9,69.3,11.2,133.2,13.9c-16-51-30.6-93.1-41.2-122.2c-35.8,3.6-61.3,7.3-61.3,7.3   s-3.9,5.6-9.2,14.2c7.5,2.7,12.9,9.8,12.9,18.3c0,10.7-8.7,19.4-19.4,19.4h-13.6C1062.7,1273.1,1058,1293.9,1070.5,1301.3z"/><path class="st1" d="M1289.1,1298.3c-1-3.4-2-7-3.1-10.6c-4.1,9.6-8.4,19.6-12.7,29.9c7.1,0.2,14,0.4,20.8,0.5   C1292.8,1311.9,1291.1,1305.3,1289.1,1298.3z"/><path class="st3" d="M1302.2,1321.2c1.7,8.8,2.8,16.6,2.8,23.1c0,1,0,2-0.1,2.9c20.6,2.9,30.7,4.3,35.7,5c-0.3-1.9-0.7-4.3-1.1-7.2   c-1.2-7.6-3-18.3-5.2-30.9c-4.5-25.1-10.8-57.4-18.4-86.4c-0.5-1.7-0.9-3.4-1.4-5.1c-7.2,16.2-15.3,34.6-24,54.8   C1295.4,1293.2,1299.6,1308.3,1302.2,1321.2z"/><path class="st3" d="M1299.5,1177.6c-3.3-7.4-6.7-13.3-9.8-16.9c-1.7-1.9-3.2-3.1-4.5-3.7c-10.7-4.9-19.6-6.4-26.5-6.4   c-7.4,0-12.5,1.7-15.4,3c3.5,8.1,13.4,31.3,24.2,59.4c6.6,17,13.5,35.7,19.5,54c9-20.7,17.2-39.3,24.3-55.4   C1307.6,1198.7,1303.6,1186.9,1299.5,1177.6z"/><path class="st4" d="M1240,1164.4c2.4,5.8,5.7,13.6,9.4,22.7c6,14.6,13.1,32.8,20.1,51.8c4.6,12.6,9.2,25.6,13.2,38.2   c1.5-3.4,2.9-6.8,4.3-10.1c-6.1-18.3-13-37-19.5-54c-10.9-28.1-20.7-51.3-24.2-59.4c2.9-1.3,8-3,15.4-3c6.9,0,15.8,1.5,26.5,6.4   c1.3,0.6,2.8,1.8,4.5,3.7c3.1,3.6,6.5,9.4,9.8,16.9c4.1,9.3,8.1,21.1,11.9,34.1c1.6-3.5,3.1-6.9,4.5-10.1   c-1.2-3.9-2.5-7.8-3.7-11.4c-0.3-0.7-0.5-1.4-0.8-2.1c-3.3-9.1-6.7-17-10.2-23.3c-0.1-0.1-0.1-0.2-0.2-0.3   c-1.6-2.7-3.2-5.2-4.9-7.3c-0.3-0.4-0.6-0.8-1-1.2c-2.1-2.4-4.4-4.3-6.9-5.5c-11.6-5.3-21.6-7.1-29.5-7.1c-14,0-21.7,5.3-22.2,5.6   c-1.4,1-1.9,2.8-1.2,4.4c0,0,0.2,0.6,0.7,1.6c0.2,0.6,0.5,1.3,0.9,2.1C1237.7,1159,1238.7,1161.4,1240,1164.4z"/><path class="st4" d="M1294.2,1318.1c0.5,2.1,0.9,4.1,1.3,6.1c1.5,7.8,2.3,14.7,2.3,20.1c0,0.8,0,1.6-0.1,2.4   c-0.1,1.1-0.1,2.2-0.3,3.1c-0.1,1,0.1,1.9,0.7,2.7c0.6,0.8,1.4,1.3,2.4,1.4c0.1,0,0.2,0,0.2,0c43.6,6.1,43.6,6.1,43.6,6.1   c1.1,0.2,2.3-0.2,3.1-1c0.8-0.8,1.2-2,1-3.1c0,0-0.1-0.7-0.3-2c-0.2-1.6-0.6-4-1.1-7.3c-1-6.5-2.6-16.1-4.6-27.7   c-3-16.9-6.9-38-11.6-59.4c-3.5-16.2-7.5-32.5-11.8-47.4c-1.5,3.4-3.1,6.8-4.6,10.4c0.5,1.7,0.9,3.4,1.4,5.1   c7.5,29,13.9,61.3,18.4,86.4c2.2,12.5,4,23.3,5.2,30.9c0.5,2.9,0.8,5.3,1.1,7.2c-5-0.7-15.1-2.1-35.7-5c0.1-0.9,0.1-1.9,0.1-2.9   c0-6.5-1-14.3-2.8-23.1c-2.6-13-6.8-28.1-11.8-43.8c-1.5,3.4-2.9,6.8-4.4,10.3c1.1,3.6,2.1,7.1,3.1,10.6   C1291.1,1305.3,1292.8,1311.9,1294.2,1318.1z"/><path d="M1317.9,1919.7c0-2.4,0.1-4.8,0.1-7.3c0-3.2,0.1-6.4,0.1-9.6c0-9.2-0.1-18.4-0.4-27.7c-3.7-148.1-36-306.8-71-438.2   c-3-11.1-6-22-9-32.8c-1.5,3.7-3,7.4-4.4,11.1c2.4,8.5,4.7,17.2,7,26c34.7,130.6,66.5,287.7,70.2,434c0.2,9.2,0.4,18.4,0.4,27.5   c0,3.2,0,6.4-0.1,9.6c0,2.4-0.1,4.8-0.1,7.3c0,0,0,0.1,0,0.1c-0.2,9.9-0.5,19.7-0.9,29.4c0,0.4,0,0.8-0.1,1.2   c-0.1,2,1.4,3.7,3.4,3.8c2,0.1,3.7-1.4,3.8-3.4c0-0.5,0-1.1,0.1-1.6C1317.4,1939.5,1317.7,1929.7,1317.9,1919.7   C1317.9,1919.8,1317.9,1919.8,1317.9,1919.7z"/><path d="M1152,1164.4c2.8,7.3,6.3,16.9,10.6,28.6c10.6,29.1,25.2,71.2,41.2,122.2c3.2,10.2,6.4,20.7,9.7,31.5   c0.7,2.4,1.4,4.8,2.2,7.3c4.8,16,9.6,32.6,14.4,49.8c1.5-3.7,3-7.4,4.4-11c-3.8-13.3-7.5-26.2-11.3-38.7c-0.7-2.4-1.5-4.9-2.2-7.3   c-3.2-10.7-6.4-21.1-9.6-31.2c-16-51.2-30.7-93.6-41.4-123.3c-4-11.2-7.5-20.6-10.3-27.9c-1-2.7-1.9-5.1-2.8-7.3   c-2.9-7.5-4.4-11.5-4.5-11.5c-0.7-1.9-2.9-2.8-4.7-2c-1.9,0.7-2.8,2.9-2,4.7l0,0c0,0,0.2,0.4,0.5,1.2c0.5,1.4,1.6,4,3,7.6   C1150,1159.2,1150.9,1161.6,1152,1164.4z"/><path d="M1075.4,1949.2c1-9.5,2.2-19.4,3.6-29.4c0.2-1.2,0.3-2.3,0.5-3.5c0.4-2.4,0.7-4.8,1.1-7.2c9-57.9,25.1-123,45-190   c30.5-102.8,70.2-210.2,107.5-303.7c1.5-3.7,3-7.4,4.4-11.1c6.9-17.3,13.8-34.1,20.5-50.2c1-2.4,2-4.8,3-7.3c2-4.7,3.9-9.4,5.8-14   c2.2-5.1,4.3-10.2,6.4-15.2c4.4-10.3,8.6-20.3,12.7-29.9c1.5-3.5,3-6.9,4.4-10.3c8.7-20.3,16.8-38.7,24-54.8   c1.6-3.6,3.1-7.1,4.6-10.4c1.9-4.3,3.8-8.5,5.6-12.4c1.6-3.5,3.1-6.8,4.5-10c4.7-10.3,8.6-18.8,11.6-25.4c0.4-0.8,0.8-1.6,1.1-2.4   c0.8-1.8,1.6-3.4,2.3-4.9c1-2.1,1.8-3.8,2.4-5.1c1.1-2.3,1.6-3.4,1.6-3.4c0.9-1.8,0.1-4-1.7-4.8c-1.8-0.9-4-0.1-4.8,1.7l0,0   c0,0-1.9,4.1-5.4,11.7c-1,2.1-2.1,4.6-3.4,7.3c-3,6.6-6.8,14.8-11.2,24.5c-1.8,4-3.7,8.2-5.7,12.6c-1.5,3.2-3,6.6-4.5,10.1   c-7.2,16.1-15.4,34.7-24.3,55.4c-1.4,3.3-2.9,6.7-4.3,10.1c-5.5,12.8-11.2,26.2-17.2,40.3c-4,9.5-8.1,19.3-12.3,29.4   c-1,2.4-2,4.8-3,7.3c-5.2,12.6-10.5,25.5-15.8,38.7c-1.5,3.7-3,7.3-4.4,11c-5.9,14.7-11.8,29.7-17.8,45   c-33,84.7-66.7,178.2-93.5,268.2c-20.1,67.6-36.3,133.3-45.4,191.9c-0.4,2.4-0.7,4.8-1.1,7.2c-0.2,1.2-0.4,2.4-0.5,3.7   c-1.4,10-2.6,19.8-3.6,29.4c-0.2,2.4-0.5,4.8-0.7,7.3c-0.2,2.7-0.5,5.5-0.7,8.1c-0.2,2,1.3,3.7,3.3,3.9c2,0.2,3.7-1.3,3.9-3.3   c0.2-2.9,0.5-5.8,0.8-8.7C1075,1954.1,1075.2,1951.7,1075.4,1949.2z"/><path d="M1005.4,1241.4c2.2,2.2,5.2,3.6,8.6,3.6h71.4c3.4,0,6.4-1.4,8.6-3.6c2.2-2.2,3.6-5.2,3.6-8.6c0-3.4-1.4-6.4-3.6-8.6   c-2.2-2.2-5.2-3.6-8.6-3.6H1014c-3.4,0-6.4,1.4-8.6,3.6c-2.2,2.2-3.6,5.2-3.6,8.6C1001.9,1236.2,1003.2,1239.2,1005.4,1241.4z"/><path d="M1020.1,1252.3h51.7h13.6c10.7,0,19.4-8.7,19.4-19.4c0-8.4-5.4-15.6-12.9-18.3c-2.1-0.7-4.3-1.2-6.6-1.2h-65.2h-6.2   c-0.4,0-0.7,0-1.1,0.1c-10.2,0.6-18.3,9-18.3,19.4c0,10.3,8.1,18.8,18.3,19.4c0.4,0,0.8,0.1,1.1,0.1H1020.1z M1014,1220.7h71.4   c3.4,0,6.4,1.4,8.6,3.6c2.2,2.2,3.6,5.2,3.6,8.6c0,3.4-1.4,6.4-3.6,8.6c-2.2,2.2-5.2,3.6-8.6,3.6H1014c-3.4,0-6.4-1.4-8.6-3.6   c-2.2-2.2-3.6-5.2-3.6-8.6c0-3.4,1.4-6.4,3.6-8.6C1007.6,1222,1010.7,1220.7,1014,1220.7z"/><path d="M953.6,1671.1c-0.7,1-1.4,1.8-2.3,2.6l0,0c-0.9,0.7-1.5,0.8-2.1,1c-0.6,0.1-1.1,0.2-1.8,0.3c-1.2,0.1-2.6,0.2-4.3,0.2   c-4.3,0-10.3-0.3-16.9-0.8c-6.6-0.5-13.8-1.2-20.4-1.8c-13.3-1.3-24.6-2.7-24.6-2.7c-0.6-0.1-1.2-0.3-1.8-0.7   c-0.1-0.1-2-1.6-4.5-4.1c-1.2-1.3-2.6-2.8-3.8-4.6c-0.5,2.3-1,4.8-1.4,7.3c-2.9,15.5-5.8,35.4-5.8,52.7c0,6.5,0.4,12.6,1.3,17.9   c0.9,5.3,2.4,9.9,4.3,13.2c1.3,2.2,2.8,3.9,4.5,5.1c4.4,3.1,10,5.4,16.2,6.9c6.2,1.5,13,2.2,19.8,2.2c8.7,0,17.5-1.2,25.2-3.2   c7.7-2.1,14.4-5.1,18.8-8.5c2.9-2.3,4.8-4.7,5.6-7c1-2.8,1.8-7.7,2.3-13.6c0.5-5.9,0.7-13,0.7-20.4c0-19-1.3-40.5-2.2-53.5   c-0.9,1.7-1.9,3.4-2.8,5C956.3,1667.1,954.9,1669.4,953.6,1671.1z"/><path d="M945.4,1766.9c5.1-2,9.6-4.4,13.3-7.2c3.7-2.9,6.5-6.3,8-10.3c1.4-3.9,2.2-9.2,2.7-15.4c0.5-6.2,0.7-13.4,0.7-21   c0-28.1-2.8-61.1-3.2-65.6c-0.2,0.5-3.1,6.1-6.3,12.1c0.9,13,2.2,34.5,2.2,53.5c0,7.4-0.2,14.4-0.7,20.4   c-0.5,5.9-1.3,10.8-2.3,13.6c-0.8,2.3-2.7,4.7-5.6,7c-4.4,3.4-11,6.5-18.8,8.5c-7.7,2.1-16.5,3.2-25.2,3.2   c-6.9,0-13.7-0.7-19.8-2.2c-6.2-1.5-11.7-3.8-16.2-6.9c-1.7-1.2-3.2-2.9-4.5-5.1c-2-3.3-3.4-7.8-4.3-13.2   c-0.9-5.3-1.3-11.4-1.3-17.9c0-17.3,2.9-37.2,5.8-52.7c0.5-2.6,1-5,1.4-7.3c-1.3-1.8-2.5-3.9-3.6-6.1c-0.6-1.4-1.2-3-1.6-4.6   c-1,4.5-2.2,10.2-3.4,16.7c-2.9,15.8-5.9,36-5.9,54.1c0,9,0.7,17.6,2.7,24.8c1,3.6,2.3,7,4,9.9c1.7,2.9,3.9,5.5,6.6,7.4   c5.4,3.7,11.7,6.3,18.6,8c6.8,1.7,14.2,2.4,21.5,2.4c0,0,0.1,0,0.1,0C922.7,1773,935.2,1770.9,945.4,1766.9z"/><path class="st3" d="M958.5,1648c-0.2,0-0.3-0.1-0.5-0.1c-3-0.8-7.3-2-12.3-3.3c-10.1-2.6-23.3-5.7-35.8-7.7   c-8.3-1.4-16.3-2.3-22.8-2.3c-3,0-5.7,0.2-7.8,0.6c-2.1,0.4-3.6,1-4.4,1.6c-0.5,0.4-0.7,0.7-0.9,1c-0.9,2.2-1.3,4.2-1.3,6.2   c0,2.5,0.6,4.9,1.6,7.2c1,2.3,2.4,4.4,3.8,6.2c2,2.6,4.1,4.5,5.1,5.4c0.7,0.1,1.8,0.2,3.2,0.4c2.7,0.3,6.4,0.7,10.8,1.2   c8.7,0.9,19.9,2.1,29.7,2.8c6.5,0.5,12.3,0.8,16.3,0.8c1.2,0,2.2,0,2.9-0.1c0.4,0,0.7-0.1,1-0.1c0.1-0.2,0.3-0.4,0.5-0.6   c0.5-0.6,1-1.5,1.6-2.4c1.2-2,2.7-4.5,4.1-7C955.2,1654.2,957.1,1650.7,958.5,1648z"/><path class="st4" d="M871.2,1660.4c1.3,1.8,2.6,3.4,3.8,4.6c2.4,2.6,4.4,4,4.5,4.1c0.5,0.4,1.1,0.6,1.8,0.7c0,0,11.2,1.3,24.6,2.7   c6.7,0.7,13.8,1.3,20.4,1.8c6.6,0.5,12.5,0.8,16.9,0.8c1.7,0,3.1,0,4.3-0.2c0.6-0.1,1.2-0.2,1.8-0.3c0.6-0.2,1.2-0.3,2.1-1l0,0   c0.9-0.8,1.5-1.6,2.3-2.6c1.3-1.7,2.7-4,4.1-6.6c0.9-1.6,1.9-3.3,2.8-5c3.3-6,6.1-11.6,6.3-12.1c0,0,0-0.1,0-0.1   c0.5-1,0.5-2.1,0.1-3.1c-0.4-1-1.3-1.7-2.3-2c0,0-12.5-3.7-28.4-7.4c-1.4-0.3-2.8-0.6-4.2-1c-6.8-1.5-14-3-21.1-4.2   c-8.6-1.4-16.9-2.4-23.9-2.4c-4.5,0-8.4,0.4-11.8,1.4c-1.7,0.5-3.3,1.2-4.6,2.2c-1.4,1-2.6,2.3-3.3,4c-1.3,3.1-1.9,6.2-1.9,9.1   c0,2,0.3,3.9,0.7,5.7c0.4,1.6,0.9,3.1,1.6,4.6C868.7,1656.5,870,1658.6,871.2,1660.4z M949.2,1664.7c-0.6,1-1.2,1.8-1.6,2.4   c-0.2,0.3-0.4,0.5-0.5,0.6c-0.2,0-0.6,0.1-1,0.1c-0.8,0.1-1.8,0.1-2.9,0.1c-4,0-9.8-0.3-16.3-0.8c-9.7-0.7-20.9-1.9-29.7-2.8   c-4.4-0.5-8.1-0.9-10.8-1.2c-1.4-0.2-2.5-0.3-3.2-0.4c-1.1-0.9-3.1-2.8-5.1-5.4c-1.4-1.8-2.8-3.9-3.8-6.2c-1-2.3-1.6-4.7-1.6-7.2   c0-2,0.4-4,1.3-6.2c0.1-0.3,0.3-0.6,0.9-1c0.8-0.6,2.3-1.2,4.4-1.6c2.1-0.4,4.8-0.6,7.8-0.6c6.4,0,14.4,0.9,22.8,2.3   c12.5,2.1,25.7,5.2,35.8,7.7c5,1.3,9.3,2.5,12.3,3.3c0.2,0.1,0.3,0.1,0.5,0.1c-1.4,2.6-3.2,6.2-5.2,9.7   C951.9,1660.3,950.4,1662.8,949.2,1664.7z"/><path class="st4" d="M817.7,1841.5c-0.3-2.5-0.6-6.1-1.1-10.6c-0.1-1.3-1.3-2.3-2.6-2.2c-1.3,0.1-2.3,1.3-2.2,2.6   c0.9,9,1.5,14.5,1.5,14.5c0.2,1.3,1.4,2.3,2.7,2.1c1.3-0.2,2.3-1.4,2.1-2.7l0,0C818.1,1845.4,817.9,1844,817.7,1841.5z"/><path class="st4" d="M818.7,1656.6c-1.3-0.3-2.6,0.6-2.9,1.9c-2.2,10.4-4,20.1-5.7,28.3c-0.3,1.3,0.6,2.6,1.9,2.9   c1.3,0.3,2.6-0.6,2.9-1.9l0,0c1.7-8.3,3.5-17.9,5.7-28.3C820.8,1658.2,820,1656.9,818.7,1656.6z"/><path class="st4" d="M814.1,1802.3L814.1,1802.3c-0.7-8.9-1.3-18.7-1.8-28.7c-0.1-1.3-1.2-2.4-2.5-2.3c-1.3,0.1-2.4,1.2-2.3,2.5   c0.5,10.1,1.2,19.9,1.8,28.9c0.1,1.3,1.3,2.3,2.6,2.2C813.2,1804.8,814.2,1803.6,814.1,1802.3z"/><path class="st4" d="M835.5,1601.4c-1.2-0.5-2.7,0.1-3.2,1.3c-3.8,9-6.9,18.3-9.5,27.6c-0.4,1.3,0.4,2.6,1.7,3   c1.3,0.4,2.6-0.4,3-1.7c2.6-9.1,5.7-18.3,9.3-27C837.3,1603.4,836.7,1601.9,835.5,1601.4z"/><path class="st4" d="M811.3,1744.8L811.3,1744.8c0-2.8-0.1-5.5-0.1-8.2c0-7.1,0.1-14,0.5-20.5c0.1-1.3-1-2.5-2.3-2.5   c-1.3-0.1-2.5,1-2.5,2.3c-0.3,6.6-0.5,13.6-0.5,20.7c0,2.7,0,5.5,0.1,8.3c0,1.3,1.1,2.4,2.5,2.4   C810.2,1747.2,811.3,1746.1,811.3,1744.8z"/><path class="st4" d="M866.3,1555.3c-7.9,5.9-14.5,13.2-20.2,21.5c-0.8,1.1-0.5,2.6,0.6,3.4c1.1,0.8,2.6,0.5,3.4-0.6v0   c5.4-8,11.7-14.9,19.1-20.4c1.1-0.8,1.3-2.3,0.5-3.4C868.8,1554.7,867.3,1554.5,866.3,1555.3z"/><path class="st4" d="M908,1541.2c-5.2,0.1-10.2,0.7-14.9,1.8c-1.3,0.3-2.1,1.6-1.8,2.9c0.3,1.3,1.6,2.1,2.9,1.8l0,0   c4.4-1,9-1.5,13.9-1.6c1.3,0,2.4-1.1,2.4-2.5C910.5,1542.2,909.4,1541.2,908,1541.2z"/><path class="st4" d="M1059.1,1702.3c1.3,0.2,2.5-0.8,2.7-2.1c1.2-9.6,2.3-19.2,3.4-28.9c0.1-1.3-0.8-2.5-2.1-2.7   c-1.3-0.1-2.5,0.8-2.7,2.1c-1.1,9.6-2.2,19.2-3.4,28.8C1056.9,1700.9,1057.8,1702.1,1059.1,1702.3z"/><path class="st4" d="M1066.5,1586.5c1.3-0.1,2.4-1.2,2.3-2.5c-0.5-9.2-0.7-18.1-0.7-26.7c0-0.7,0-1.5,0-2.2c0-1.3-1.1-2.4-2.4-2.4   c-1.3,0-2.4,1.1-2.4,2.4v0c0,0.7,0,1.5,0,2.2c0,8.7,0.2,17.7,0.7,27C1064,1585.6,1065.1,1586.6,1066.5,1586.5z"/><path class="st4" d="M1054.2,1786.6c0-1.3-1.1-2.4-2.4-2.4c-1.3,0-2.4,1.1-2.4,2.4h0c0,1.1,0,2.1,0,3.2c0,9.1,0.4,17.8,1.4,26.1   c0.2,1.3,1.4,2.3,2.7,2.1c1.3-0.2,2.3-1.4,2.1-2.7c-1-8-1.4-16.6-1.4-25.5C1054.1,1788.7,1054.1,1787.7,1054.2,1786.6z"/><path class="st4" d="M1066.5,1528.5c1.3,0.1,2.5-0.9,2.6-2.3c0.7-10.1,1.6-19.6,2.8-28.7c0.2-1.3-0.8-2.5-2.1-2.7   c-1.3-0.2-2.5,0.8-2.7,2.1v0c-1.2,9.2-2.1,18.9-2.8,29C1064.1,1527.2,1065.1,1528.4,1066.5,1528.5z"/><path class="st4" d="M1056.3,1726.3c-1.3-0.2-2.5,0.8-2.7,2.1v0c-1.1,9.8-2.1,19.5-2.9,29c-0.1,1.3,0.9,2.5,2.2,2.6   c1.3,0.1,2.5-0.9,2.6-2.2c0.7-9.4,1.7-19,2.8-28.8C1058.5,1727.6,1057.6,1726.4,1056.3,1726.3z"/><path class="st4" d="M1065.4,1644.5c1.3,0.1,2.5-0.9,2.6-2.2c0.8-9.9,1.3-19.6,1.5-29.1c0-1.3-1-2.4-2.4-2.5c-1.3,0-2.4,1-2.5,2.4   h0c-0.2,9.4-0.7,19.1-1.4,28.9C1063.1,1643.2,1064.1,1644.4,1065.4,1644.5z"/><path class="st4" d="M1081.1,1437.9c-1.3-0.3-2.6,0.4-3,1.7l0,0c-2.3,8.6-4.5,18.1-6.5,28.5c-0.3,1.3,0.6,2.6,1.9,2.8   c1.3,0.3,2.6-0.6,2.8-1.9c2-10.3,4.2-19.7,6.5-28.1C1083.2,1439.5,1082.4,1438.2,1081.1,1437.9z"/><path class="st4" d="M1099.1,1885.1c8.4,2.8,18.1,4.6,29.1,5.1c1.3,0.1,2.5-1,2.5-2.3c0.1-1.3-1-2.5-2.3-2.5   c-10.7-0.5-19.9-2.2-27.8-4.9c-1.3-0.4-2.6,0.3-3.1,1.5C1097.2,1883.3,1097.8,1884.6,1099.1,1885.1z"/><path class="st4" d="M1062,1842.9c-0.5-1.2-1.9-1.9-3.1-1.4c-1.2,0.5-1.9,1.9-1.4,3.1h0c3.7,9.7,8.9,18.2,16.1,25.1   c1,0.9,2.5,0.9,3.4,0c0.9-1,0.9-2.5,0-3.4C1070.4,1859.9,1065.5,1852,1062,1842.9z"/><path class="st4" d="M1086.8,1411.6c-0.4,1.3,0.2,2.6,1.5,3.1c1.3,0.4,2.6-0.2,3.1-1.5c0.4-1,0.7-2,1.1-2.9l-4.9-0.7   C1087.3,1410.3,1087,1410.9,1086.8,1411.6z"/><polygon points="1106.7,1405 1111.2,1380.8 1090.9,1384.2 1084.3,1401.8  "/><path d="M1115.1,1372.7l-27.5,4.7c-1.3,0.2-2.3,1.1-2.8,2.3l-8.9,23.8c-0.4,1-0.3,2.2,0.3,3.1c0.6,0.9,1.5,1.6,2.6,1.7l8.7,1.3   l4.9,0.7l16.7,2.4c1.9,0.3,3.7-1,4.1-2.9l6.2-32.8c0.2-1.2-0.1-2.4-1-3.2C1117.5,1372.9,1116.3,1372.5,1115.1,1372.7z    M1111.2,1380.8l-4.6,24.3l-22.4-3.2l6.6-17.6L1111.2,1380.8z"/><path class="st1" d="M702.7,2227.1c0-43.4-226.5,0-226.5,0S702.7,2270.6,702.7,2227.1z"/><path class="st1" d="M747.1,2755.2c0,0-115.9-7.6-115.9,11.1C631.2,2785,747.1,2755.2,747.1,2755.2z"/><path d="M1719.7,1811.8c17.9-2,31.8-7,42.3-13.8c15.9-10.1,24.2-23.8,28.5-35.6c4.3-11.8,4.6-21.8,4.6-24.8c0-0.6,0-0.9,0-1   c-0.1-2-1.8-3.6-3.8-3.5c-2,0.1-3.6,1.8-3.5,3.8l0,0l0,0c0,0.1,0,0.3,0,0.6c0,3.3-0.6,18.5-9.4,33.3c-4.4,7.5-10.8,14.9-20.4,21   c-9.5,6.1-22.2,10.8-39.2,12.7c-2,0.2-3.4,2-3.2,4C1715.9,1810.6,1717.7,1812,1719.7,1811.8z"/><path class="st1" d="M3352.8,1348.8c0,0-67.5-154.4-155.9-61.6c-37.3-133.2-155.6-105.8-139.7,21.7   c-58.3-33.1-111.5-3.7-108.7,39.9H3352.8z"/><path class="st1" d="M1264.8,918.7c72.3-72.5,8.1-207.3-110.7-82.7c16.1-109.4-219.5-58.8-187.5,29.2   c-78.2-44.4-295.8-19-232.6,53.5H1264.8z"/><path class="st1" d="M743,1016.3c0,0-163.3-34.6-153.6,2.3C599.1,1055.5,743,1016.3,743,1016.3z"/><path class="st1" d="M2948.3,1394c0,0-182.9-39.3-182.9,8.5S2948.3,1394,2948.3,1394z"/><path class="st1" d="M3002.3,1469.9c-2.3,16.4,98.3-3.6,98.3-3.6S3004.6,1453.5,3002.3,1469.9z"/><path d="M3025.6,2624L3025.6,2624c0.1,0,5.4,3.3,11.8,11.2c6.4,7.9,13.7,20.4,17.8,39.1c0.4,2,2.4,3.2,4.3,2.8   c2-0.4,3.2-2.4,2.8-4.3c-4.4-20.2-12.5-33.9-19.5-42.6c-7.1-8.7-13.1-12.3-13.4-12.4c-1.7-1-4-0.4-5,1.3   C3023.3,2620.8,3023.9,2623,3025.6,2624z M3025.6,2624L3025.6,2624C3025.6,2624,3025.6,2624,3025.6,2624L3025.6,2624z"/><path d="M3042.8,2736.5c2,0.2,3.8-1.3,3.9-3.3c0.2-2.1,0.3-4.1,0.3-6.1c0-12.8-3.5-23.1-7-30.3c-3.5-7.2-7-11.2-7.2-11.4   c-1.3-1.5-3.6-1.7-5.1-0.3c-1.5,1.3-1.7,3.6-0.3,5.1l0,0c0,0,3.2,3.7,6.2,10.1c3.1,6.4,6.1,15.6,6.1,26.8c0,1.8-0.1,3.6-0.2,5.5   C3039.3,2734.5,3040.8,2736.3,3042.8,2736.5z M3027.4,2690.2L3027.4,2690.2C3027.4,2690.2,3027.4,2690.2,3027.4,2690.2   L3027.4,2690.2z"/><path d="M1160.3,2918.4c1.7,1,4,0.4,5-1.3c1-1.7,0.4-4-1.3-5c-21.1-12.3-34.8-24.9-43.2-34.3c-4.2-4.7-7.1-8.6-8.9-11.3   c-0.9-1.4-1.5-2.4-1.9-3.1c-0.2-0.4-0.3-0.6-0.4-0.8l-0.1-0.2l0,0l0,0l0,0l0,0c-0.9-1.8-3.1-2.5-4.9-1.6c-1.8,0.9-2.5,3.1-1.6,4.9   h0C1103.1,2866.1,1116.7,2893,1160.3,2918.4z"/><path d="M1166.3,2880.5c0.1,0.1,5,4.4,12,9.2c3.5,2.4,7.5,5,11.7,7.2c4.2,2.2,8.6,4.2,13,5.3c1.9,0.5,3.9-0.7,4.4-2.6   c0.5-1.9-0.7-3.9-2.6-4.4c-3.6-0.9-7.5-2.6-11.4-4.6c-5.8-3.1-11.4-7-15.6-10.1c-2.1-1.6-3.8-2.9-4.9-3.9c-0.6-0.5-1-0.9-1.4-1.1   l-0.3-0.3l-0.1-0.1c-1.5-1.3-3.8-1.2-5.1,0.3C1164.6,2876.9,1164.7,2879.2,1166.3,2880.5L1166.3,2880.5z"/><path d="M1962.6,1049.2c3,0,5.7-0.4,7.9-1.2c2.2-0.8,4-2.1,5.5-4.1c1.1-1.5,2.2-3.9,2.8-6.6c0.7-2.7,1.1-5.7,1.1-8.2   c0-3.7-0.8-10.4-2.3-14.7c-0.5-1.4-1-2.5-1.4-3.1c-0.8-1.2-1.5-1.6-2.5-2c-1-0.4-2.3-0.5-4-0.5c-2,0-4.4,0.2-7,0.2   c-4.6,0-8.9,2.1-12.1,5.7c-3.2,3.6-5.2,8.7-5.2,14.4c0,5.7,2,10.8,5.2,14.4C1953.8,1047.1,1958,1049.2,1962.6,1049.2z"/><path d="M1969.7,1001.5c-1.3,0-2.5,0.1-3.7,0.1c-1.2,0.1-2.3,0.1-3.4,0.1c-6.9,0-13.1,3.2-17.5,8.2c-3.3,3.8-5.6,8.5-6.6,13.8h3.2   c2,0,3.6,1.6,3.6,3.6c0,2-1.6,3.6-3.6,3.6h-3.5c0.4,6.7,2.9,12.7,6.9,17.3c4.4,5,10.6,8.2,17.5,8.2c1.4,0,2.9-0.1,4.3-0.3   c2.1-0.2,4.1-0.6,6.1-1.4c0.5-0.2,1-0.4,1.5-0.7c2.8-1.3,5.3-3.2,7.3-6c1.9-2.6,3.1-5.8,4-9.1c0.9-3.3,1.3-6.8,1.3-10   c0-3.1-0.4-7.2-1.2-11.2c-0.4-2-0.9-4-1.5-5.8c-0.6-1.8-1.3-3.5-2.3-5c-1.6-2.3-3.7-3.9-6-4.7c-0.9-0.3-1.9-0.6-2.8-0.7   C1972.2,1001.6,1970.9,1001.5,1969.7,1001.5z M1950.6,1014.7c3.2-3.6,7.4-5.7,12.1-5.7c2.7,0,5.1-0.2,7-0.2c1.7,0,3.1,0.2,4,0.5   c1,0.4,1.7,0.9,2.5,2c0.4,0.5,0.9,1.7,1.4,3.1c1.4,4.3,2.3,11,2.3,14.7c0,2.5-0.4,5.5-1.1,8.2c-0.7,2.7-1.7,5.2-2.8,6.6   c-1.5,2-3.3,3.2-5.5,4.1c-2.2,0.8-4.9,1.2-7.9,1.2c-4.6,0-8.9-2.1-12.1-5.7c-3.2-3.6-5.2-8.7-5.2-14.4   C1945.4,1023.4,1947.4,1018.3,1950.6,1014.7z"/><path d="M1876.7,1031h3.5h58h3.5c2,0,3.6-1.6,3.6-3.6c0-2-1.6-3.6-3.6-3.6h-3.2h-57.9h-3.9c-2,0-3.6,1.6-3.6,3.6   c0,1.6,1.1,3,2.6,3.4C1876,1030.9,1876.4,1031,1876.7,1031z"/><path d="M3343.8,3128.9h-177.5c-2,0-3.6,1.6-3.6,3.6s1.6,3.6,3.6,3.6h177.5c2,0,3.6-1.6,3.6-3.6S3345.8,3128.9,3343.8,3128.9z"/><path d="M1070.2,3107.5c0-2-1.6-3.6-3.6-3.6H944.7H869c-2,0-3.6,1.6-3.6,3.6c0,2,1.6,3.6,3.6,3.6h80.3h117.2   C1068.6,3111.1,1070.2,3109.5,1070.2,3107.5z"/><path d="M1100.2,3152.7h121.9c2,0,3.6-1.6,3.6-3.6c0-2-1.6-3.6-3.6-3.6h-121.9c-2,0-3.6,1.6-3.6,3.6   C1096.5,3151,1098.2,3152.7,1100.2,3152.7z"/></g></svg>